<svg xmlns="http://www.w3.org/2000/svg" xmlns:xlink="http://www.w3.org/1999/xlink" width="1476.461" height="430" viewBox="0 0 1476.461 430"><defs><filter id="a" x="415.461" y="187" width="552" height="135" filterUnits="userSpaceOnUse"><feOffset dy="3" input="SourceAlpha"/><feGaussianBlur stdDeviation="3" result="b"/><feFlood flood-opacity="0.161"/><feComposite operator="in" in2="b"/><feComposite in="SourceGraphic"/></filter><filter id="c" x="420.602" y="300" width="227.724" height="22" filterUnits="userSpaceOnUse"><feOffset dy="3" input="SourceAlpha"/><feGaussianBlur stdDeviation="3" result="d"/><feFlood flood-opacity="0.161"/><feComposite operator="in" in2="d"/><feComposite in="SourceGraphic"/></filter><filter id="e" x="420.602" y="290" width="227.724" height="22" filterUnits="userSpaceOnUse"><feOffset dy="3" input="SourceAlpha"/><feGaussianBlur stdDeviation="3" result="f"/><feFlood flood-opacity="0.161"/><feComposite operator="in" in2="f"/><feComposite in="SourceGraphic"/></filter><filter id="g" x="400.461" y="66" width="1076" height="178" filterUnits="userSpaceOnUse"><feOffset dy="3" input="SourceAlpha"/><feGaussianBlur stdDeviation="3" result="h"/><feFlood flood-opacity="0.161"/><feComposite operator="in" in2="h"/><feComposite in="SourceGraphic"/></filter><filter id="i" x="0" y="0" width="430" height="430" filterUnits="userSpaceOnUse"><feOffset dx="13" dy="23" input="SourceAlpha"/><feGaussianBlur stdDeviation="9" result="j"/><feFlood flood-opacity="0.161"/><feComposite operator="in" in2="j"/><feComposite in="SourceGraphic"/></filter><filter id="k" x="19.457" y="35.457" width="339.086" height="332.087" filterUnits="userSpaceOnUse"><feOffset dx="-17" dy="10" input="SourceAlpha"/><feGaussianBlur stdDeviation="3" result="l"/><feFlood flood-opacity="0.161"/><feComposite operator="in" in2="l"/></filter><filter id="m" x="19.457" y="35.457" width="339.086" height="332.087" filterUnits="userSpaceOnUse"><feOffset dy="3" input="SourceAlpha"/><feGaussianBlur stdDeviation="3" result="n"/><feFlood flood-opacity="0.161" result="o"/><feComposite operator="out" in="SourceGraphic" in2="n"/><feComposite operator="in" in="o"/><feComposite operator="in" in2="SourceGraphic"/></filter><filter id="p" x="25.466" y="120.833" width="299.615" height="218.101" filterUnits="userSpaceOnUse"><feOffset dx="-17" dy="10" input="SourceAlpha"/><feGaussianBlur stdDeviation="3" result="q"/><feFlood flood-opacity="0.161"/><feComposite operator="in" in2="q"/></filter><filter id="r" x="25.466" y="120.833" width="299.615" height="218.101" filterUnits="userSpaceOnUse"><feOffset dy="3" input="SourceAlpha"/><feGaussianBlur stdDeviation="3" result="s"/><feFlood flood-opacity="0.161" result="t"/><feComposite operator="out" in="SourceGraphic" in2="s"/><feComposite operator="in" in="t"/><feComposite operator="in" in2="SourceGraphic"/></filter></defs><g transform="translate(15290.23 1226)"><g transform="matrix(1, 0, 0, 1, -15290.23, -1226)" filter="url(#a)"><text transform="translate(424.46 281)" font-size="84" font-family="Poppins-Medium, Poppins" font-weight="500" letter-spacing="0.008em"><tspan x="0" y="0">Immigration</tspan></text></g><g transform="matrix(1, 0, 0, 1, -15290.23, -1226)" filter="url(#c)"><rect width="209.724" height="4" rx="2" transform="translate(429.6 306)" fill="#e82025"/></g><g transform="matrix(1, 0, 0, 1, -15290.23, -1226)" filter="url(#e)"><rect width="209.724" height="4" rx="2" transform="translate(429.6 296)" fill="#e82025"/></g><g transform="matrix(1, 0, 0, 1, -15290.23, -1226)" filter="url(#g)"><text transform="translate(409.46 192)" font-size="114" font-family="Poppins-Medium, Poppins" font-weight="500" letter-spacing="0.008em"><tspan x="0" y="0">Western Overseas</tspan></text></g><g transform="matrix(1, 0, 0, 1, -15290.23, -1226)" filter="url(#i)"><g transform="translate(14 4)" fill="#e82025" stroke="#fff" stroke-width="8"><circle cx="188" cy="188" r="188" stroke="none"/><circle cx="188" cy="188" r="184" fill="none"/></g></g><g data-type="innerShadowGroup"><g transform="matrix(1, 0, 0, 1, -15290.23, -1226)" filter="url(#k)"><g transform="translate(9954.44 30.71)" fill="#fff" stroke-linecap="square"><path d="M -9752.435546875 316.8299865722656 C -9759.427734375 316.8299865722656 -9766.3857421875 316.3664245605469 -9773.265625 315.4454956054688 C -9771.4169921875 315.5172119140625 -9769.56640625 315.5531616210938 -9767.7158203125 315.5531616210938 C -9689.26953125 315.5531616210938 -9625.4482421875 251.7330627441406 -9625.4482421875 173.2875671386719 C -9625.4482421875 94.84069061279297 -9689.26953125 31.0195255279541 -9767.7158203125 31.0195255279541 C -9836.4326171875 31.0195255279541 -9893.7705078125 79.26744842529297 -9907.07421875 144.4374237060547 C -9906.548828125 139.5589141845703 -9905.7958984375 134.7154693603516 -9904.818359375 129.9376525878906 C -9902.7744140625 119.9512786865234 -9899.7255859375 110.1283569335938 -9895.755859375 100.7417755126953 C -9891.857421875 91.52539825439453 -9887.0322265625 82.6361083984375 -9881.4140625 74.32086181640625 C -9875.849609375 66.08435821533203 -9869.4599609375 58.33910751342773 -9862.4208984375 51.30019378662109 C -9855.3818359375 44.26131820678711 -9847.63671875 37.87094116210938 -9839.3994140625 32.30648422241211 C -9831.0849609375 26.68885803222656 -9822.1953125 21.86394119262695 -9812.9794921875 17.96577453613281 C -9803.5927734375 13.99565029144287 -9793.76953125 10.94652557373047 -9783.783203125 8.90302562713623 C -9773.5361328125 6.806191921234131 -9762.9892578125 5.742983818054199 -9752.435546875 5.742983818054199 C -9741.880859375 5.742983818054199 -9731.333984375 6.806191921234131 -9721.0869140625 8.90302562713623 C -9711.1005859375 10.94652557373047 -9701.27734375 13.99565029144287 -9691.890625 17.96581649780273 C -9682.673828125 21.86394119262695 -9673.78515625 26.68885803222656 -9665.4697265625 32.30648422241211 C -9657.2333984375 37.87089920043945 -9649.48828125 44.26131820678711 -9642.44921875 51.30019378662109 C -9635.41015625 58.33906555175781 -9629.01953125 66.08432006835938 -9623.455078125 74.32081604003906 C -9617.837890625 82.63607025146484 -9613.0126953125 91.52536010742188 -9609.1142578125 100.7417755126953 C -9605.14453125 110.1283569335938 -9602.0947265625 119.9512786865234 -9600.0517578125 129.9376525878906 C -9597.955078125 140.1849822998047 -9596.8916015625 150.7322692871094 -9596.8916015625 161.2864837646484 C -9596.8916015625 171.8406982421875 -9597.955078125 182.3879852294922 -9600.0517578125 192.6353149414062 C -9602.0947265625 202.6216888427734 -9605.14453125 212.4446105957031 -9609.1142578125 221.8311920166016 C -9613.0126953125 231.047607421875 -9617.837890625 239.9369049072266 -9623.455078125 248.2521514892578 C -9629.01953125 256.4886474609375 -9635.41015625 264.23388671875 -9642.44921875 271.2727661132812 C -9649.48828125 278.3116455078125 -9657.2333984375 284.7020568847656 -9665.4697265625 290.2664794921875 C -9673.78515625 295.8840942382812 -9682.673828125 300.7090148925781 -9691.890625 304.6071472167969 C -9701.27734375 308.5773315429688 -9711.1005859375 311.6264343261719 -9721.0869140625 313.6699523925781 C -9731.333984375 315.7667846679688 -9741.880859375 316.8299865722656 -9752.435546875 316.8299865722656 Z" stroke="none"/><path d="M -9752.435546875 315.8299865722656 C -9741.9482421875 315.8299865722656 -9731.46875 314.7736206054688 -9721.287109375 312.6902465820312 C -9711.365234375 310.6599731445312 -9701.6064453125 307.6305541992188 -9692.2802734375 303.6861572265625 C -9683.123046875 299.8131408691406 -9674.291015625 295.0193481445312 -9666.029296875 289.4378662109375 C -9657.845703125 283.9090576171875 -9650.150390625 277.5595397949219 -9643.15625 270.5656433105469 C -9636.162109375 263.57177734375 -9629.8125 255.8761138916016 -9624.2841796875 247.6923217773438 C -9618.7021484375 239.4306030273438 -9613.908203125 230.5985717773438 -9610.03515625 221.441650390625 C -9606.0908203125 212.1158599853516 -9603.0615234375 202.3565673828125 -9601.03125 192.434814453125 C -9598.9482421875 182.2533111572266 -9597.8916015625 171.7735290527344 -9597.8916015625 161.2864837646484 C -9597.8916015625 150.7994384765625 -9598.9482421875 140.3196563720703 -9601.03125 130.1381530761719 C -9603.0615234375 120.2164001464844 -9606.0908203125 110.4571075439453 -9610.03515625 101.1313171386719 C -9613.908203125 91.97440338134766 -9618.7021484375 83.14235687255859 -9624.2841796875 74.88065338134766 C -9629.8125 66.69686126708984 -9636.162109375 59.00119400024414 -9643.15625 52.00731658935547 C -9650.150390625 45.01344299316406 -9657.845703125 38.66390228271484 -9666.029296875 33.13510894775391 C -9674.291015625 27.55360794067383 -9683.123046875 22.75981712341309 -9692.2802734375 18.88681793212891 C -9701.6064453125 14.9423999786377 -9711.365234375 11.91298389434814 -9721.287109375 9.882733345031738 C -9731.46875 7.79935884475708 -9741.9482421875 6.742983818054199 -9752.435546875 6.742983818054199 C -9762.921875 6.742983818054199 -9773.4013671875 7.79935884475708 -9783.5830078125 9.882733345031738 C -9793.5048828125 11.91298389434814 -9803.263671875 14.9423999786377 -9812.58984375 18.88681793212891 C -9821.74609375 22.75981712341309 -9830.578125 27.55364990234375 -9838.83984375 33.13510894775391 C -9847.0234375 38.6639404296875 -9854.7197265625 45.01344299316406 -9861.7138671875 52.00731658935547 C -9868.70703125 59.00119400024414 -9875.056640625 66.6968994140625 -9880.5859375 74.88065338134766 C -9886.1669921875 83.14240264892578 -9890.9609375 91.97440338134766 -9894.833984375 101.1313171386719 C -9898.0830078125 108.8115463256836 -9900.7109375 116.786003112793 -9902.6708984375 124.9028549194336 C -9882.876953125 69.28555297851562 -9829.927734375 30.0195255279541 -9767.7158203125 30.0195255279541 C -9688.7177734375 30.0195255279541 -9624.4482421875 94.28931427001953 -9624.4482421875 173.2875671386719 C -9624.4482421875 247.4002075195312 -9681.017578125 308.5496520996094 -9753.244140625 315.8279113769531 C -9752.974609375 315.8292846679688 -9752.705078125 315.8299865722656 -9752.435546875 315.8299865722656 M -9752.435546875 317.8299865722656 C -9767.4638671875 317.8299865722656 -9782.00390625 315.7103881835938 -9795.7607421875 311.757080078125 C -9786.6943359375 313.59033203125 -9777.314453125 314.5531616210938 -9767.7158203125 314.5531616210938 C -9689.8203125 314.5531616210938 -9626.4482421875 251.1809387207031 -9626.4482421875 173.2875671386719 C -9626.4482421875 95.39169311523438 -9689.8203125 32.01952362060547 -9767.7158203125 32.01952362060547 C -9843.640625 32.01952362060547 -9905.76953125 92.23519134521484 -9908.861328125 167.4169006347656 C -9908.939453125 165.3833160400391 -9908.978515625 163.3392333984375 -9908.978515625 161.2864837646484 C -9908.978515625 74.82877349853516 -9838.890625 4.742983818054199 -9752.435546875 4.742983818054199 C -9665.9775390625 4.742983818054199 -9595.8916015625 74.82877349853516 -9595.8916015625 161.2864837646484 C -9595.8916015625 247.7441864013672 -9665.9775390625 317.8299865722656 -9752.435546875 317.8299865722656 Z" stroke="none" fill="#fff"/></g></g><g transform="translate(-5335.795 -1195.286)" fill="#fff"><path d="M -9752.435546875 316.8299865722656 C -9759.427734375 316.8299865722656 -9766.3857421875 316.3664245605469 -9773.265625 315.4454956054688 C -9771.4169921875 315.5172119140625 -9769.56640625 315.5531616210938 -9767.7158203125 315.5531616210938 C -9689.26953125 315.5531616210938 -9625.4482421875 251.7330627441406 -9625.4482421875 173.2875671386719 C -9625.4482421875 94.84069061279297 -9689.26953125 31.0195255279541 -9767.7158203125 31.0195255279541 C -9836.4326171875 31.0195255279541 -9893.7705078125 79.26744842529297 -9907.07421875 144.4374237060547 C -9906.548828125 139.5589141845703 -9905.7958984375 134.7154693603516 -9904.818359375 129.9376525878906 C -9902.7744140625 119.9512786865234 -9899.7255859375 110.1283569335938 -9895.755859375 100.7417755126953 C -9891.857421875 91.52539825439453 -9887.0322265625 82.6361083984375 -9881.4140625 74.32086181640625 C -9875.849609375 66.08435821533203 -9869.4599609375 58.33910751342773 -9862.4208984375 51.30019378662109 C -9855.3818359375 44.26131820678711 -9847.63671875 37.87094116210938 -9839.3994140625 32.30648422241211 C -9831.0849609375 26.68885803222656 -9822.1953125 21.86394119262695 -9812.9794921875 17.96577453613281 C -9803.5927734375 13.99565029144287 -9793.76953125 10.94652557373047 -9783.783203125 8.90302562713623 C -9773.5361328125 6.806191921234131 -9762.9892578125 5.742983818054199 -9752.435546875 5.742983818054199 C -9741.880859375 5.742983818054199 -9731.333984375 6.806191921234131 -9721.0869140625 8.90302562713623 C -9711.1005859375 10.94652557373047 -9701.27734375 13.99565029144287 -9691.890625 17.96581649780273 C -9682.673828125 21.86394119262695 -9673.78515625 26.68885803222656 -9665.4697265625 32.30648422241211 C -9657.2333984375 37.87089920043945 -9649.48828125 44.26131820678711 -9642.44921875 51.30019378662109 C -9635.41015625 58.33906555175781 -9629.01953125 66.08432006835938 -9623.455078125 74.32081604003906 C -9617.837890625 82.63607025146484 -9613.0126953125 91.52536010742188 -9609.1142578125 100.7417755126953 C -9605.14453125 110.1283569335938 -9602.0947265625 119.9512786865234 -9600.0517578125 129.9376525878906 C -9597.955078125 140.1849822998047 -9596.8916015625 150.7322692871094 -9596.8916015625 161.2864837646484 C -9596.8916015625 171.8406982421875 -9597.955078125 182.3879852294922 -9600.0517578125 192.6353149414062 C -9602.0947265625 202.6216888427734 -9605.14453125 212.4446105957031 -9609.1142578125 221.8311920166016 C -9613.0126953125 231.047607421875 -9617.837890625 239.9369049072266 -9623.455078125 248.2521514892578 C -9629.01953125 256.4886474609375 -9635.41015625 264.23388671875 -9642.44921875 271.2727661132812 C -9649.48828125 278.3116455078125 -9657.2333984375 284.7020568847656 -9665.4697265625 290.2664794921875 C -9673.78515625 295.8840942382812 -9682.673828125 300.7090148925781 -9691.890625 304.6071472167969 C -9701.27734375 308.5773315429688 -9711.1005859375 311.6264343261719 -9721.0869140625 313.6699523925781 C -9731.333984375 315.7667846679688 -9741.880859375 316.8299865722656 -9752.435546875 316.8299865722656 Z" stroke="none"/><path d="M -9752.435546875 315.8299865722656 C -9741.9482421875 315.8299865722656 -9731.46875 314.7736206054688 -9721.287109375 312.6902465820312 C -9711.365234375 310.6599731445312 -9701.6064453125 307.6305541992188 -9692.2802734375 303.6861572265625 C -9683.123046875 299.8131408691406 -9674.291015625 295.0193481445312 -9666.029296875 289.4378662109375 C -9657.845703125 283.9090576171875 -9650.150390625 277.5595397949219 -9643.15625 270.5656433105469 C -9636.162109375 263.57177734375 -9629.8125 255.8761138916016 -9624.2841796875 247.6923217773438 C -9618.7021484375 239.4306030273438 -9613.908203125 230.5985717773438 -9610.03515625 221.441650390625 C -9606.0908203125 212.1158599853516 -9603.0615234375 202.3565673828125 -9601.03125 192.434814453125 C -9598.9482421875 182.2533111572266 -9597.8916015625 171.7735290527344 -9597.8916015625 161.2864837646484 C -9597.8916015625 150.7994384765625 -9598.9482421875 140.3196563720703 -9601.03125 130.1381530761719 C -9603.0615234375 120.2164001464844 -9606.0908203125 110.4571075439453 -9610.03515625 101.1313171386719 C -9613.908203125 91.97440338134766 -9618.7021484375 83.14235687255859 -9624.2841796875 74.88065338134766 C -9629.8125 66.69686126708984 -9636.162109375 59.00119400024414 -9643.15625 52.00731658935547 C -9650.150390625 45.01344299316406 -9657.845703125 38.66390228271484 -9666.029296875 33.13510894775391 C -9674.291015625 27.55360794067383 -9683.123046875 22.75981712341309 -9692.2802734375 18.88681793212891 C -9701.6064453125 14.9423999786377 -9711.365234375 11.91298389434814 -9721.287109375 9.882733345031738 C -9731.46875 7.79935884475708 -9741.9482421875 6.742983818054199 -9752.435546875 6.742983818054199 C -9762.921875 6.742983818054199 -9773.4013671875 7.79935884475708 -9783.5830078125 9.882733345031738 C -9793.5048828125 11.91298389434814 -9803.263671875 14.9423999786377 -9812.58984375 18.88681793212891 C -9821.74609375 22.75981712341309 -9830.578125 27.55364990234375 -9838.83984375 33.13510894775391 C -9847.0234375 38.6639404296875 -9854.7197265625 45.01344299316406 -9861.7138671875 52.00731658935547 C -9868.70703125 59.00119400024414 -9875.056640625 66.6968994140625 -9880.5859375 74.88065338134766 C -9886.1669921875 83.14240264892578 -9890.9609375 91.97440338134766 -9894.833984375 101.1313171386719 C -9898.0830078125 108.8115463256836 -9900.7109375 116.786003112793 -9902.6708984375 124.9028549194336 C -9882.876953125 69.28555297851562 -9829.927734375 30.0195255279541 -9767.7158203125 30.0195255279541 C -9688.7177734375 30.0195255279541 -9624.4482421875 94.28931427001953 -9624.4482421875 173.2875671386719 C -9624.4482421875 247.4002075195312 -9681.017578125 308.5496520996094 -9753.244140625 315.8279113769531 C -9752.974609375 315.8292846679688 -9752.705078125 315.8299865722656 -9752.435546875 315.8299865722656 M -9752.435546875 317.8299865722656 C -9767.4638671875 317.8299865722656 -9782.00390625 315.7103881835938 -9795.7607421875 311.757080078125 C -9786.6943359375 313.59033203125 -9777.314453125 314.5531616210938 -9767.7158203125 314.5531616210938 C -9689.8203125 314.5531616210938 -9626.4482421875 251.1809387207031 -9626.4482421875 173.2875671386719 C -9626.4482421875 95.39169311523438 -9689.8203125 32.01952362060547 -9767.7158203125 32.01952362060547 C -9843.640625 32.01952362060547 -9905.76953125 92.23519134521484 -9908.861328125 167.4169006347656 C -9908.939453125 165.3833160400391 -9908.978515625 163.3392333984375 -9908.978515625 161.2864837646484 C -9908.978515625 74.82877349853516 -9838.890625 4.742983818054199 -9752.435546875 4.742983818054199 C -9665.9775390625 4.742983818054199 -9595.8916015625 74.82877349853516 -9595.8916015625 161.2864837646484 C -9595.8916015625 247.7441864013672 -9665.9775390625 317.8299865722656 -9752.435546875 317.8299865722656 Z" stroke="none"/></g><g transform="matrix(1, 0, 0, 1, -15290.23, -1226)" filter="url(#m)"><g transform="translate(9954.44 30.71)" fill="#fff"><path d="M -9752.435546875 316.8299865722656 C -9759.427734375 316.8299865722656 -9766.3857421875 316.3664245605469 -9773.265625 315.4454956054688 C -9771.4169921875 315.5172119140625 -9769.56640625 315.5531616210938 -9767.7158203125 315.5531616210938 C -9689.26953125 315.5531616210938 -9625.4482421875 251.7330627441406 -9625.4482421875 173.2875671386719 C -9625.4482421875 94.84069061279297 -9689.26953125 31.0195255279541 -9767.7158203125 31.0195255279541 C -9836.4326171875 31.0195255279541 -9893.7705078125 79.26744842529297 -9907.07421875 144.4374237060547 C -9906.548828125 139.5589141845703 -9905.7958984375 134.7154693603516 -9904.818359375 129.9376525878906 C -9902.7744140625 119.9512786865234 -9899.7255859375 110.1283569335938 -9895.755859375 100.7417755126953 C -9891.857421875 91.52539825439453 -9887.0322265625 82.6361083984375 -9881.4140625 74.32086181640625 C -9875.849609375 66.08435821533203 -9869.4599609375 58.33910751342773 -9862.4208984375 51.30019378662109 C -9855.3818359375 44.26131820678711 -9847.63671875 37.87094116210938 -9839.3994140625 32.30648422241211 C -9831.0849609375 26.68885803222656 -9822.1953125 21.86394119262695 -9812.9794921875 17.96577453613281 C -9803.5927734375 13.99565029144287 -9793.76953125 10.94652557373047 -9783.783203125 8.90302562713623 C -9773.5361328125 6.806191921234131 -9762.9892578125 5.742983818054199 -9752.435546875 5.742983818054199 C -9741.880859375 5.742983818054199 -9731.333984375 6.806191921234131 -9721.0869140625 8.90302562713623 C -9711.1005859375 10.94652557373047 -9701.27734375 13.99565029144287 -9691.890625 17.96581649780273 C -9682.673828125 21.86394119262695 -9673.78515625 26.68885803222656 -9665.4697265625 32.30648422241211 C -9657.2333984375 37.87089920043945 -9649.48828125 44.26131820678711 -9642.44921875 51.30019378662109 C -9635.41015625 58.33906555175781 -9629.01953125 66.08432006835938 -9623.455078125 74.32081604003906 C -9617.837890625 82.63607025146484 -9613.0126953125 91.52536010742188 -9609.1142578125 100.7417755126953 C -9605.14453125 110.1283569335938 -9602.0947265625 119.9512786865234 -9600.0517578125 129.9376525878906 C -9597.955078125 140.1849822998047 -9596.8916015625 150.7322692871094 -9596.8916015625 161.2864837646484 C -9596.8916015625 171.8406982421875 -9597.955078125 182.3879852294922 -9600.0517578125 192.6353149414062 C -9602.0947265625 202.6216888427734 -9605.14453125 212.4446105957031 -9609.1142578125 221.8311920166016 C -9613.0126953125 231.047607421875 -9617.837890625 239.9369049072266 -9623.455078125 248.2521514892578 C -9629.01953125 256.4886474609375 -9635.41015625 264.23388671875 -9642.44921875 271.2727661132812 C -9649.48828125 278.3116455078125 -9657.2333984375 284.7020568847656 -9665.4697265625 290.2664794921875 C -9673.78515625 295.8840942382812 -9682.673828125 300.7090148925781 -9691.890625 304.6071472167969 C -9701.27734375 308.5773315429688 -9711.1005859375 311.6264343261719 -9721.0869140625 313.6699523925781 C -9731.333984375 315.7667846679688 -9741.880859375 316.8299865722656 -9752.435546875 316.8299865722656 Z" stroke="none"/><path d="M -9752.435546875 315.8299865722656 C -9741.9482421875 315.8299865722656 -9731.46875 314.7736206054688 -9721.287109375 312.6902465820312 C -9711.365234375 310.6599731445312 -9701.6064453125 307.6305541992188 -9692.2802734375 303.6861572265625 C -9683.123046875 299.8131408691406 -9674.291015625 295.0193481445312 -9666.029296875 289.4378662109375 C -9657.845703125 283.9090576171875 -9650.150390625 277.5595397949219 -9643.15625 270.5656433105469 C -9636.162109375 263.57177734375 -9629.8125 255.8761138916016 -9624.2841796875 247.6923217773438 C -9618.7021484375 239.4306030273438 -9613.908203125 230.5985717773438 -9610.03515625 221.441650390625 C -9606.0908203125 212.1158599853516 -9603.0615234375 202.3565673828125 -9601.03125 192.434814453125 C -9598.9482421875 182.2533111572266 -9597.8916015625 171.7735290527344 -9597.8916015625 161.2864837646484 C -9597.8916015625 150.7994384765625 -9598.9482421875 140.3196563720703 -9601.03125 130.1381530761719 C -9603.0615234375 120.2164001464844 -9606.0908203125 110.4571075439453 -9610.03515625 101.1313171386719 C -9613.908203125 91.97440338134766 -9618.7021484375 83.14235687255859 -9624.2841796875 74.88065338134766 C -9629.8125 66.69686126708984 -9636.162109375 59.00119400024414 -9643.15625 52.00731658935547 C -9650.150390625 45.01344299316406 -9657.845703125 38.66390228271484 -9666.029296875 33.13510894775391 C -9674.291015625 27.55360794067383 -9683.123046875 22.75981712341309 -9692.2802734375 18.88681793212891 C -9701.6064453125 14.9423999786377 -9711.365234375 11.91298389434814 -9721.287109375 9.882733345031738 C -9731.46875 7.79935884475708 -9741.9482421875 6.742983818054199 -9752.435546875 6.742983818054199 C -9762.921875 6.742983818054199 -9773.4013671875 7.79935884475708 -9783.5830078125 9.882733345031738 C -9793.5048828125 11.91298389434814 -9803.263671875 14.9423999786377 -9812.58984375 18.88681793212891 C -9821.74609375 22.75981712341309 -9830.578125 27.55364990234375 -9838.83984375 33.13510894775391 C -9847.0234375 38.6639404296875 -9854.7197265625 45.01344299316406 -9861.7138671875 52.00731658935547 C -9868.70703125 59.00119400024414 -9875.056640625 66.6968994140625 -9880.5859375 74.88065338134766 C -9886.1669921875 83.14240264892578 -9890.9609375 91.97440338134766 -9894.833984375 101.1313171386719 C -9898.0830078125 108.8115463256836 -9900.7109375 116.786003112793 -9902.6708984375 124.9028549194336 C -9882.876953125 69.28555297851562 -9829.927734375 30.0195255279541 -9767.7158203125 30.0195255279541 C -9688.7177734375 30.0195255279541 -9624.4482421875 94.28931427001953 -9624.4482421875 173.2875671386719 C -9624.4482421875 247.4002075195312 -9681.017578125 308.5496520996094 -9753.244140625 315.8279113769531 C -9752.974609375 315.8292846679688 -9752.705078125 315.8299865722656 -9752.435546875 315.8299865722656 M -9752.435546875 317.8299865722656 C -9767.4638671875 317.8299865722656 -9782.00390625 315.7103881835938 -9795.7607421875 311.757080078125 C -9786.6943359375 313.59033203125 -9777.314453125 314.5531616210938 -9767.7158203125 314.5531616210938 C -9689.8203125 314.5531616210938 -9626.4482421875 251.1809387207031 -9626.4482421875 173.2875671386719 C -9626.4482421875 95.39169311523438 -9689.8203125 32.01952362060547 -9767.7158203125 32.01952362060547 C -9843.640625 32.01952362060547 -9905.76953125 92.23519134521484 -9908.861328125 167.4169006347656 C -9908.939453125 165.3833160400391 -9908.978515625 163.3392333984375 -9908.978515625 161.2864837646484 C -9908.978515625 74.82877349853516 -9838.890625 4.742983818054199 -9752.435546875 4.742983818054199 C -9665.9775390625 4.742983818054199 -9595.8916015625 74.82877349853516 -9595.8916015625 161.2864837646484 C -9595.8916015625 247.7441864013672 -9665.9775390625 317.8299865722656 -9752.435546875 317.8299865722656 Z" stroke="none"/></g></g><g transform="translate(-5335.795 -1195.286)" fill="none" stroke-linecap="square"><path d="M -9752.435546875 316.8299865722656 C -9759.427734375 316.8299865722656 -9766.3857421875 316.3664245605469 -9773.265625 315.4454956054688 C -9771.4169921875 315.5172119140625 -9769.56640625 315.5531616210938 -9767.7158203125 315.5531616210938 C -9689.26953125 315.5531616210938 -9625.4482421875 251.7330627441406 -9625.4482421875 173.2875671386719 C -9625.4482421875 94.84069061279297 -9689.26953125 31.0195255279541 -9767.7158203125 31.0195255279541 C -9836.4326171875 31.0195255279541 -9893.7705078125 79.26744842529297 -9907.07421875 144.4374237060547 C -9906.548828125 139.5589141845703 -9905.7958984375 134.7154693603516 -9904.818359375 129.9376525878906 C -9902.7744140625 119.9512786865234 -9899.7255859375 110.1283569335938 -9895.755859375 100.7417755126953 C -9891.857421875 91.52539825439453 -9887.0322265625 82.6361083984375 -9881.4140625 74.32086181640625 C -9875.849609375 66.08435821533203 -9869.4599609375 58.33910751342773 -9862.4208984375 51.30019378662109 C -9855.3818359375 44.26131820678711 -9847.63671875 37.87094116210938 -9839.3994140625 32.30648422241211 C -9831.0849609375 26.68885803222656 -9822.1953125 21.86394119262695 -9812.9794921875 17.96577453613281 C -9803.5927734375 13.99565029144287 -9793.76953125 10.94652557373047 -9783.783203125 8.90302562713623 C -9773.5361328125 6.806191921234131 -9762.9892578125 5.742983818054199 -9752.435546875 5.742983818054199 C -9741.880859375 5.742983818054199 -9731.333984375 6.806191921234131 -9721.0869140625 8.90302562713623 C -9711.1005859375 10.94652557373047 -9701.27734375 13.99565029144287 -9691.890625 17.96581649780273 C -9682.673828125 21.86394119262695 -9673.78515625 26.68885803222656 -9665.4697265625 32.30648422241211 C -9657.2333984375 37.87089920043945 -9649.48828125 44.26131820678711 -9642.44921875 51.30019378662109 C -9635.41015625 58.33906555175781 -9629.01953125 66.08432006835938 -9623.455078125 74.32081604003906 C -9617.837890625 82.63607025146484 -9613.0126953125 91.52536010742188 -9609.1142578125 100.7417755126953 C -9605.14453125 110.1283569335938 -9602.0947265625 119.9512786865234 -9600.0517578125 129.9376525878906 C -9597.955078125 140.1849822998047 -9596.8916015625 150.7322692871094 -9596.8916015625 161.2864837646484 C -9596.8916015625 171.8406982421875 -9597.955078125 182.3879852294922 -9600.0517578125 192.6353149414062 C -9602.0947265625 202.6216888427734 -9605.14453125 212.4446105957031 -9609.1142578125 221.8311920166016 C -9613.0126953125 231.047607421875 -9617.837890625 239.9369049072266 -9623.455078125 248.2521514892578 C -9629.01953125 256.4886474609375 -9635.41015625 264.23388671875 -9642.44921875 271.2727661132812 C -9649.48828125 278.3116455078125 -9657.2333984375 284.7020568847656 -9665.4697265625 290.2664794921875 C -9673.78515625 295.8840942382812 -9682.673828125 300.7090148925781 -9691.890625 304.6071472167969 C -9701.27734375 308.5773315429688 -9711.1005859375 311.6264343261719 -9721.0869140625 313.6699523925781 C -9731.333984375 315.7667846679688 -9741.880859375 316.8299865722656 -9752.435546875 316.8299865722656 Z" stroke="none"/><path d="M -9752.435546875 315.8299865722656 C -9741.9482421875 315.8299865722656 -9731.46875 314.7736206054688 -9721.287109375 312.6902465820312 C -9711.365234375 310.6599731445312 -9701.6064453125 307.6305541992188 -9692.2802734375 303.6861572265625 C -9683.123046875 299.8131408691406 -9674.291015625 295.0193481445312 -9666.029296875 289.4378662109375 C -9657.845703125 283.9090576171875 -9650.150390625 277.5595397949219 -9643.15625 270.5656433105469 C -9636.162109375 263.57177734375 -9629.8125 255.8761138916016 -9624.2841796875 247.6923217773438 C -9618.7021484375 239.4306030273438 -9613.908203125 230.5985717773438 -9610.03515625 221.441650390625 C -9606.0908203125 212.1158599853516 -9603.0615234375 202.3565673828125 -9601.03125 192.434814453125 C -9598.9482421875 182.2533111572266 -9597.8916015625 171.7735290527344 -9597.8916015625 161.2864837646484 C -9597.8916015625 150.7994384765625 -9598.9482421875 140.3196563720703 -9601.03125 130.1381530761719 C -9603.0615234375 120.2164001464844 -9606.0908203125 110.4571075439453 -9610.03515625 101.1313171386719 C -9613.908203125 91.97440338134766 -9618.7021484375 83.14235687255859 -9624.2841796875 74.88065338134766 C -9629.8125 66.69686126708984 -9636.162109375 59.00119400024414 -9643.15625 52.00731658935547 C -9650.150390625 45.01344299316406 -9657.845703125 38.66390228271484 -9666.029296875 33.13510894775391 C -9674.291015625 27.55360794067383 -9683.123046875 22.75981712341309 -9692.2802734375 18.88681793212891 C -9701.6064453125 14.9423999786377 -9711.365234375 11.91298389434814 -9721.287109375 9.882733345031738 C -9731.46875 7.79935884475708 -9741.9482421875 6.742983818054199 -9752.435546875 6.742983818054199 C -9762.921875 6.742983818054199 -9773.4013671875 7.79935884475708 -9783.5830078125 9.882733345031738 C -9793.5048828125 11.91298389434814 -9803.263671875 14.9423999786377 -9812.58984375 18.88681793212891 C -9821.74609375 22.75981712341309 -9830.578125 27.55364990234375 -9838.83984375 33.13510894775391 C -9847.0234375 38.6639404296875 -9854.7197265625 45.01344299316406 -9861.7138671875 52.00731658935547 C -9868.70703125 59.00119400024414 -9875.056640625 66.6968994140625 -9880.5859375 74.88065338134766 C -9886.1669921875 83.14240264892578 -9890.9609375 91.97440338134766 -9894.833984375 101.1313171386719 C -9898.0830078125 108.8115463256836 -9900.7109375 116.786003112793 -9902.6708984375 124.9028549194336 C -9882.876953125 69.28555297851562 -9829.927734375 30.0195255279541 -9767.7158203125 30.0195255279541 C -9688.7177734375 30.0195255279541 -9624.4482421875 94.28931427001953 -9624.4482421875 173.2875671386719 C -9624.4482421875 247.4002075195312 -9681.017578125 308.5496520996094 -9753.244140625 315.8279113769531 C -9752.974609375 315.8292846679688 -9752.705078125 315.8299865722656 -9752.435546875 315.8299865722656 M -9752.435546875 317.8299865722656 C -9767.4638671875 317.8299865722656 -9782.00390625 315.7103881835938 -9795.7607421875 311.757080078125 C -9786.6943359375 313.59033203125 -9777.314453125 314.5531616210938 -9767.7158203125 314.5531616210938 C -9689.8203125 314.5531616210938 -9626.4482421875 251.1809387207031 -9626.4482421875 173.2875671386719 C -9626.4482421875 95.39169311523438 -9689.8203125 32.01952362060547 -9767.7158203125 32.01952362060547 C -9843.640625 32.01952362060547 -9905.76953125 92.23519134521484 -9908.861328125 167.4169006347656 C -9908.939453125 165.3833160400391 -9908.978515625 163.3392333984375 -9908.978515625 161.2864837646484 C -9908.978515625 74.82877349853516 -9838.890625 4.742983818054199 -9752.435546875 4.742983818054199 C -9665.9775390625 4.742983818054199 -9595.8916015625 74.82877349853516 -9595.8916015625 161.2864837646484 C -9595.8916015625 247.7441864013672 -9665.9775390625 317.8299865722656 -9752.435546875 317.8299865722656 Z" stroke="none" fill="#fff"/></g></g><g data-type="innerShadowGroup"><g transform="matrix(1, 0, 0, 1, -15290.23, -1226)" filter="url(#p)"><path d="M-9930.758,9.653l-14.371-3.742L-9952,2.791h37.8l72.468,187.143-17.182,6.862Zm117.632,85.008-26.164,39.775-.086-.222-.485.825-51.228-127.57-8.458-4.616L-9904.8.581l29.095.507,39.844,98.148,15.578-23.726-25.59-68.456-14.3-3.9L-9867,0l37.791.659,69.271,183.6-17.295,6.385Zm54.056,19.821-.137-.326v-.011L-9802.046,7.469l-8.455-4.616-5.255-2.273,29.093.507,36.9,90.916,40.647-88.34,29.959.518-5.49,2.084-8.867,4.316-55.678,120.763-1.628,3.694Z" transform="translate(10003.88 121.83)" fill="#fff" stroke="#fff" stroke-width="2"/></g><path d="M-9930.758,9.653l-14.371-3.742L-9952,2.791h37.8l72.468,187.143-17.182,6.862Zm117.632,85.008-26.164,39.775-.086-.222-.485.825-51.228-127.57-8.458-4.616L-9904.8.581l29.095.507,39.844,98.148,15.578-23.726-25.59-68.456-14.3-3.9L-9867,0l37.791.659,69.271,183.6-17.295,6.385Zm54.056,19.821-.137-.326v-.011L-9802.046,7.469l-8.455-4.616-5.255-2.273,29.093.507,36.9,90.916,40.647-88.34,29.959.518-5.49,2.084-8.867,4.316-55.678,120.763-1.628,3.694Z" transform="translate(-5286.352 -1104.167)" fill="#fff"/><g transform="matrix(1, 0, 0, 1, -15290.23, -1226)" filter="url(#r)"><path d="M-9930.758,9.653l-14.371-3.742L-9952,2.791h37.8l72.468,187.143-17.182,6.862Zm117.632,85.008-26.164,39.775-.086-.222-.485.825-51.228-127.57-8.458-4.616L-9904.8.581l29.095.507,39.844,98.148,15.578-23.726-25.59-68.456-14.3-3.9L-9867,0l37.791.659,69.271,183.6-17.295,6.385Zm54.056,19.821-.137-.326v-.011L-9802.046,7.469l-8.455-4.616-5.255-2.273,29.093.507,36.9,90.916,40.647-88.34,29.959.518-5.49,2.084-8.867,4.316-55.678,120.763-1.628,3.694Z" transform="translate(10003.88 121.83)" fill="#fff"/></g><path d="M-9930.758,9.653l-14.371-3.742L-9952,2.791h37.8l72.468,187.143-17.182,6.862Zm117.632,85.008-26.164,39.775-.086-.222-.485.825-51.228-127.57-8.458-4.616L-9904.8.581l29.095.507,39.844,98.148,15.578-23.726-25.59-68.456-14.3-3.9L-9867,0l37.791.659,69.271,183.6-17.295,6.385Zm54.056,19.821-.137-.326v-.011L-9802.046,7.469l-8.455-4.616-5.255-2.273,29.093.507,36.9,90.916,40.647-88.34,29.959.518-5.49,2.084-8.867,4.316-55.678,120.763-1.628,3.694Z" transform="translate(-5286.352 -1104.167)" fill="none" stroke="#fff" stroke-width="2"/></g></g></svg>