<?xml version="1.0" encoding="iso-8859-1"?>
<!-- Generator: Adobe Illustrator 19.0.0, SVG Export Plug-In . SVG Version: 6.00 Build 0)  -->
<svg version="1.1" id="Capa_1" xmlns="http://www.w3.org/2000/svg" xmlns:xlink="http://www.w3.org/1999/xlink" x="0px" y="0px"
	 viewBox="0 0 512 512" style="enable-background:new 0 0 512 512;" xml:space="preserve">
<g>
	<path style="fill:#85C2EF;" d="M101.153,178.037H19.52c-6.6,0-12.001-5.4-12.001-12.001V84.404c0-6.6,5.4-12.001,12.001-12.001
		h81.633c6.6,0,12.001,5.4,12.001,12.001v81.633C113.154,172.636,107.754,178.037,101.153,178.037z"/>
	<path style="fill:#85C2EF;" d="M101.153,320.398H19.52c-6.6,0-12.001-5.4-12.001-12.001v-81.633c0-6.6,5.4-12.001,12.001-12.001
		h81.633c6.6,0,12.001,5.4,12.001,12.001v81.633C113.154,314.998,107.754,320.398,101.153,320.398z"/>
	<path style="fill:#85C2EF;" d="M101.153,462.759H19.52c-6.6,0-12.001-5.4-12.001-12.001v-81.633c0-6.6,5.4-12.001,12.001-12.001
		h81.633c6.6,0,12.001,5.4,12.001,12.001v81.633C113.154,457.358,107.754,462.759,101.153,462.759z"/>
</g>
<g>
	<path style="fill:#69AFEB;" d="M101.153,159.905H19.52c-6.6,0-12.001-5.4-12.001-12.001v18.132c0,6.6,5.4,12.001,12.001,12.001
		h81.633c6.6,0,12.001-5.4,12.001-12.001v-18.132C113.154,154.505,107.754,159.905,101.153,159.905z"/>
	<path style="fill:#69AFEB;" d="M101.153,302.266H19.52c-6.6,0-12.001-5.4-12.001-12.001v18.132c0,6.6,5.4,12.001,12.001,12.001
		h81.633c6.6,0,12.001-5.4,12.001-12.001v-18.132C113.154,296.866,107.754,302.266,101.153,302.266z"/>
	<path style="fill:#69AFEB;" d="M101.153,444.628H19.52c-6.6,0-12.001-5.4-12.001-12.001v18.132c0,6.6,5.4,12.001,12.001,12.001
		h81.633c6.6,0,12.001-5.4,12.001-12.001v-18.132C113.154,439.227,107.754,444.628,101.153,444.628z"/>
</g>
<g>
	<path style="fill:#EFEFEF;" d="M482.849,72.403c-206.07,0-184.383,0-269.051,0c-11.918,0-21.668,9.751-21.668,21.668v62.297
		c0,11.918,9.751,21.668,21.668,21.668c8.424,0,257.349,0,269.051,0c11.918,0,21.668-9.751,21.668-21.668V94.071
		C504.519,82.154,494.768,72.403,482.849,72.403z"/>
	<path style="fill:#EFEFEF;" d="M482.849,357.125c-55.819,0-217.203,0-269.051,0c-11.918,0-21.668,9.751-21.668,21.668v62.297
		c0,11.918,9.751,21.668,21.668,21.668c11.402,0,257.68,0,269.051,0c11.918,0,21.668-9.751,21.668-21.668v-62.297
		C504.519,366.876,494.768,357.125,482.849,357.125z"/>
	<path style="fill:#EFEFEF;" d="M482.849,214.764c-7.202,0-262.182,0-269.051,0c-11.918,0-21.668,9.751-21.668,21.668v62.297
		c0,11.918,9.751,21.668,21.668,21.668c10.144,0,258.262,0,269.051,0c11.918,0,21.668-9.751,21.668-21.668v-62.297
		C504.519,224.514,494.768,214.764,482.849,214.764z"/>
</g>
<g>
	<path style="fill:#E2E2E2;" d="M482.849,157.722c-225.949,0-167.541,0-269.051,0c-11.918,0-21.668-9.751-21.668-21.668v20.314
		c0,11.918,9.751,21.668,21.668,21.668c10.019,0,259.533,0,269.051,0c11.918,0,21.668-9.751,21.668-21.668v-20.314
		C504.519,147.972,494.768,157.722,482.849,157.722z"/>
	<path style="fill:#E2E2E2;" d="M482.849,442.445c-10.721,0-258.52,0-269.051,0c-11.918,0-21.668-9.751-21.668-21.668v20.314
		c0,11.918,9.751,21.668,21.668,21.668c11.402,0,257.68,0,269.051,0c11.918,0,21.668-9.751,21.668-21.668v-20.314
		C504.519,432.694,494.768,442.445,482.849,442.445z"/>
	<path style="fill:#E2E2E2;" d="M482.849,300.084c-11.669,0-257.416,0-269.051,0c-11.918,0-21.668-9.751-21.668-21.668v20.314
		c0,11.918,9.751,21.668,21.668,21.668c2.244,0,262.611,0,269.051,0c11.918,0,21.668-9.751,21.668-21.668v-20.314
		C504.519,290.333,494.768,300.084,482.849,300.084z"/>
</g>
<path style="fill:#FFA92C;" d="M67.543,153.534l-24.077-31.299c-6.082-7.904-4.602-19.241,3.301-25.323
	c7.905-6.079,19.24-4.602,25.323,3.303l10.514,13.666l49.937-58.339c6.484-7.574,17.886-8.459,25.46-1.976
	c7.575,6.485,8.461,17.884,1.975,25.461l-64.403,75.239C88.122,162.97,74.532,162.62,67.543,153.534z"/>
<path style="fill:#F2961D;" d="M158.028,53.594l-62.455,72.963c-7.447,8.7-21.04,8.354-28.029-0.733L45.883,97.667
	c-7.106,6.226-8.259,16.974-2.417,24.568l24.077,31.299c6.992,9.092,20.585,9.429,28.029,0.733l64.403-75.239
	C166.452,71.462,165.576,60.084,158.028,53.594z"/>
<path style="fill:#FFA92C;" d="M67.543,295.896l-24.077-31.299c-6.082-7.904-4.602-19.241,3.301-25.323
	c7.905-6.079,19.24-4.602,25.323,3.303l10.514,13.666l49.937-58.339c6.484-7.575,17.886-8.459,25.46-1.976
	c7.575,6.485,8.461,17.884,1.975,25.461l-64.403,75.239C88.122,305.33,74.532,304.98,67.543,295.896z"/>
<path style="fill:#F2961D;" d="M158.028,195.956l-62.455,72.963c-7.447,8.7-21.04,8.354-28.029-0.733l-21.661-28.158
	c-7.106,6.226-8.259,16.974-2.417,24.568l24.077,31.299c6.992,9.092,20.585,9.429,28.029,0.733l64.403-75.239
	C166.452,213.823,165.576,202.445,158.028,195.956z"/>
<g>
	<path style="fill:#020202;" d="M101.134,349.625H19.501C8.749,349.625,0,358.373,0,369.126v81.633
		c0,10.753,8.749,19.501,19.501,19.501h81.633c10.753,0,19.501-8.749,19.501-19.501v-81.633
		C120.635,358.373,111.887,349.625,101.134,349.625z M105.634,450.759c0,2.439-2.061,4.5-4.5,4.5H19.501c-2.439,0-4.5-2.061-4.5-4.5
		v-81.633c0-2.439,2.061-4.5,4.5-4.5h81.633c2.439,0,4.5,2.061,4.5,4.5V450.759z"/>
	<path style="fill:#020202;" d="M482.831,207.263H213.78c-16.084,0-29.169,13.085-29.169,29.169v62.298
		c0,16.084,13.085,29.169,29.169,29.169h269.051c16.084,0,29.169-13.085,29.169-29.169v-62.298
		C512,220.348,498.914,207.263,482.831,207.263z M496.999,298.73c0,7.812-6.355,14.168-14.168,14.168H213.78
		c-7.812,0-14.168-6.355-14.168-14.168v-62.298c0-7.812,6.355-14.168,14.168-14.168h269.051c7.813,0,14.168,6.355,14.168,14.168
		V298.73z"/>
	<path style="fill:#020202;" d="M228.249,125.22c0,4.142,3.358,7.5,7.5,7.5h225.113c4.142,0,7.5-3.358,7.5-7.5s-3.358-7.5-7.5-7.5
		H235.749C231.607,117.72,228.249,121.077,228.249,125.22z"/>
	<path style="fill:#020202;" d="M460.861,260.081H235.749c-4.142,0-7.5,3.357-7.5,7.5s3.358,7.5,7.5,7.5h225.113
		c4.142,0,7.5-3.357,7.5-7.5S465.004,260.081,460.861,260.081z"/>
	<path style="fill:#020202;" d="M468.361,409.942c0-4.143-3.358-7.5-7.5-7.5H235.749c-4.142,0-7.5,3.357-7.5,7.5
		c0,4.143,3.358,7.5,7.5,7.5h225.113C465.004,417.442,468.361,414.085,468.361,409.942z"/>
	<path style="fill:#020202;" d="M126.823,193.027l-17.47,20.409c-5.049-3.948-11.301-6.173-17.887-6.173H29.169
		C13.085,207.263,0,220.348,0,236.432v62.298c0,16.084,13.085,29.169,29.169,29.169h62.297c16.084,0,29.169-13.085,29.169-29.169
		v-19.869l45.019-52.593c4.439-5.186,6.594-11.791,6.065-18.598C169.966,185.06,141.594,175.77,126.823,193.027z M105.634,298.73
		c0,7.812-6.355,14.168-14.168,14.168H29.169c-7.812,0-14.168-6.355-14.168-14.168v-62.298c0-7.812,6.355-14.168,14.168-14.168
		c67.693,0,65.532-0.868,70.412,2.587l-16.686,19.494l-4.879-6.342c-8.59-11.166-24.665-13.269-35.841-4.674
		c-11.196,8.616-13.287,24.643-4.672,35.84c26.355,34.259,25.103,32.977,28.042,35.414c5.143,4.266,11.804,6.365,18.558,5.75
		c12.112-1.074,17.309-9.015,21.532-13.949V298.73z M154.258,216.512l-64.403,75.24c-4.341,5.07-12.292,4.894-16.386-0.429
		l-24.078-31.301c-1.719-2.233-2.465-5.004-2.101-7.8c1.236-9.476,13.232-12.357,18.835-5.07
		c11.024,14.33,11.695,16.471,16.262,16.59c2.258,0.066,4.424-0.903,5.894-2.62c4.494-5.25,45.301-52.922,49.937-58.339
		c6.096-7.119,17.819-3.301,18.545,6.049C156.982,211.642,156.092,214.37,154.258,216.512z"/>
	<path style="fill:#020202;" d="M29.169,185.537h62.297c16.084,0,29.169-13.085,29.169-29.169V136.5l45.019-52.593
		c9.164-10.706,7.91-26.872-2.795-36.036c-10.707-9.165-26.871-7.91-36.036,2.796l-17.47,20.409
		c-5.049-3.949-11.302-6.173-17.887-6.173H29.169C13.085,64.903,0,77.987,0,94.071v62.297C0,172.452,13.085,185.537,29.169,185.537z
		 M115.316,87.178L115.316,87.178l22.903-26.756c3.786-4.422,10.462-4.94,14.885-1.156c4.421,3.786,4.939,10.464,1.154,14.886
		L89.855,149.39c-4.314,5.04-12.268,4.926-16.386-0.428l-24.077-31.3c-5.119-6.653-0.771-16.379,7.622-16.959
		c3.23-0.222,6.286,1.065,8.34,3.196c0.683,0.709,0.16,0.094,11.286,14.556c1.378,1.791,3.49,2.865,5.749,2.924
		c2.258,0.047,4.424-0.903,5.894-2.621L115.316,87.178z M15.001,94.071c0-7.812,6.355-14.168,14.168-14.168
		c67.693,0,65.532-0.868,70.413,2.587l-16.687,19.494l-4.879-6.342c-8.535-11.091-24.608-13.313-35.84-4.673
		c-11.197,8.615-13.287,24.643-4.672,35.84l24.077,31.299c9.931,12.91,29.165,13.31,39.672,1.037l0,0l4.382-5.12v2.344
		c0,7.812-6.355,14.168-14.168,14.168H29.169c-7.812,0-14.168-6.355-14.168-14.168V94.071z"/>
	<path style="fill:#020202;" d="M482.831,64.903H365.806c-4.142,0-7.5,3.358-7.5,7.5s3.358,7.5,7.5,7.5h117.025
		c7.813,0,14.168,6.355,14.168,14.168v62.297c0,7.812-6.355,14.168-14.168,14.168H213.78c-7.812,0-14.168-6.355-14.168-14.168
		V94.071c0-7.812,6.355-14.168,14.168-14.168h117.025c4.142,0,7.5-3.358,7.5-7.5s-3.358-7.5-7.5-7.5H213.78
		c-16.084,0-29.169,13.085-29.169,29.169v62.297c0,16.084,13.085,29.169,29.169,29.169h269.051
		c16.084,0,29.169-13.085,29.169-29.169V94.071C512,77.987,498.914,64.903,482.831,64.903z"/>
	<path style="fill:#020202;" d="M482.831,349.625H213.78c-16.084,0-29.169,13.085-29.169,29.169v62.297
		c0,16.084,13.085,29.17,29.169,29.17h117.025c4.142,0,7.5-3.357,7.5-7.5s-3.358-7.5-7.5-7.5H213.78
		c-7.812,0-14.168-6.355-14.168-14.169v-62.297c0-7.812,6.355-14.168,14.168-14.168h269.051c7.813,0,14.168,6.355,14.168,14.168
		v62.297c0,7.813-6.355,14.169-14.168,14.169H365.806c-4.142,0-7.5,3.357-7.5,7.5s3.358,7.5,7.5,7.5h117.025
		c16.084,0,29.169-13.086,29.169-29.17v-62.297C512,362.71,498.914,349.625,482.831,349.625z"/>
</g>
<g>
</g>
<g>
</g>
<g>
</g>
<g>
</g>
<g>
</g>
<g>
</g>
<g>
</g>
<g>
</g>
<g>
</g>
<g>
</g>
<g>
</g>
<g>
</g>
<g>
</g>
<g>
</g>
<g>
</g>
</svg>
