<svg id="Capa_1" enable-background="new 0 0 511.84 511.84" height="512" viewBox="0 0 511.84 511.84" width="512" xmlns="http://www.w3.org/2000/svg"><g><g><path d="m504.34 72.948v311.5c0 6.63-5.37 12-12 12h-472.84c-6.63 0-12-5.37-12-12v-311.5l29.347-19.704 423.652-9.476z" fill="#f2fbff"/><path d="m44.5 396.448h-25c-6.63 0-12-5.37-12-12v-311.5l13.826-19.704 11.174 19.704v311.5c0 6.63 5.37 12 12 12z" fill="#d8ecfe"/><path d="m504.34 26.588v46.36h-496.84v-46.36c0-6.62 5.37-12 12-12h472.84c6.63 0 12 5.38 12 12z" fill="#b3dafe"/><path d="m44.5 14.588c-6.63 0-12 5.38-12 12v46.36h-25v-46.36c0-6.62 5.37-12 12-12h25z" fill="#8ac9fe"/><path d="m371.677 111.202h-310.255c-6.627 0-12 5.373-12 12v113.739c0 6.627 5.373 12 12 12h23.277c4.418 0 8 3.582 8 8v37.406c0 3.404 3.982 5.252 6.582 3.055l55.113-46.572c1.444-1.22 3.273-1.89 5.164-1.89h212.12c6.627 0 12-5.373 12-12v-113.738c-.001-6.627-5.373-12-12.001-12z" fill="#fe99a0"/><path d="m138.164 309.925h310.255c6.627 0 12 5.373 12 12v113.739c0 6.627-5.373 12-12 12h-23.277c-4.418 0-8 3.582-8 8v37.406c0 3.404-3.982 5.252-6.582 3.055l-55.113-46.572c-1.444-1.22-3.273-1.889-5.164-1.889h-212.12c-6.627 0-12-5.373-12-12v-113.739c.001-6.627 5.373-12 12.001-12z" fill="#c9f6b0"/><path d="m151.161 321.924v113.74c0 6.63 5.38 12 12 12h-25c-6.62 0-12-5.37-12-12v-113.74c0-6.63 5.38-12 12-12h25c-6.62 0-12 5.37-12 12z" fill="#9be69d"/><path d="m84.421 248.944h-23c-6.63 0-12-5.38-12-12v-113.74c0-6.63 5.37-12 12-12h23c-6.63 0-12 5.37-12 12v113.74c0 6.62 5.37 12 12 12z" fill="#fd8087"/></g><g><path d="m461.349 36.259h-3.391c-4.142 0-7.5 3.357-7.5 7.5s3.358 7.5 7.5 7.5h3.391c4.142 0 7.5-3.357 7.5-7.5s-3.358-7.5-7.5-7.5z"/><path d="m504.34 108.422c4.142 0 7.5-3.357 7.5-7.5v-74.34c0-10.752-8.748-19.5-19.5-19.5h-472.84c-10.752.001-19.5 8.749-19.5 19.501v357.86c0 10.752 8.748 19.5 19.5 19.5h100.16v31.89c0 10.752 8.748 19.5 19.5 19.5h18.68c4.142 0 7.5-3.357 7.5-7.5s-3.358-7.5-7.5-7.5h-18.68c-2.481 0-4.5-2.019-4.5-4.5v-113.74c0-2.481 2.019-4.5 4.5-4.5h310.26c2.481 0 4.5 2.019 4.5 4.5v113.74c0 2.481-2.019 4.5-4.5 4.5h-23.28c-8.547 0-15.5 6.953-15.5 15.5v29.863l-49.36-41.71c-2.798-2.355-6.35-3.653-10-3.653h-158.44c-4.142 0-7.5 3.357-7.5 7.5s3.358 7.5 7.5 7.5h158.44c.121 0 .241.045.329.119l55.106 46.566c2.135 1.807 4.745 2.739 7.396 2.739 1.64 0 3.296-.357 4.866-1.085 4.11-1.906 6.663-5.906 6.663-10.439v-37.4c0-.275.224-.5.5-.5h23.28c10.752 0 19.5-8.748 19.5-19.5v-31.89h23.42c10.752 0 19.5-8.748 19.5-19.5v-248.521c0-4.143-3.358-7.5-7.5-7.5s-7.5 3.357-7.5 7.5v248.521c0 2.481-2.019 4.5-4.5 4.5h-23.42v-66.851c0-10.752-8.748-19.5-19.5-19.5h-310.26c-10.752 0-19.5 8.748-19.5 19.5v66.851h-100.16c-2.481 0-4.5-2.019-4.5-4.5v-304.005h481.84v20.484c0 4.143 3.358 7.5 7.5 7.5zm-489.34-42.984v-38.855c0-2.481 2.019-4.5 4.5-4.5h472.84c2.481 0 4.5 2.019 4.5 4.5v38.855z"/><path d="m313.36 36.259h-262.869c-4.142 0-7.5 3.357-7.5 7.5s3.358 7.5 7.5 7.5h262.87c4.142 0 7.5-3.357 7.5-7.5s-3.359-7.5-7.501-7.5z"/><path d="m432.958 36.259h-3.391c-4.142 0-7.5 3.357-7.5 7.5s3.358 7.5 7.5 7.5h3.391c4.142 0 7.5-3.357 7.5-7.5s-3.358-7.5-7.5-7.5z"/><path d="m404.567 36.259h-3.392c-4.142 0-7.5 3.357-7.5 7.5s3.358 7.5 7.5 7.5h3.392c4.142 0 7.5-3.357 7.5-7.5s-3.358-7.5-7.5-7.5z"/><path d="m134.612 221.309c8.755 0 16.872-2.762 23.544-7.449l4.982 4.982c1.464 1.464 3.384 2.196 5.303 2.196s3.839-.732 5.303-2.196c2.929-2.93 2.929-7.678 0-10.607l-5.072-5.072c4.424-6.552 7.009-14.441 7.009-22.924 0-22.646-18.424-41.07-41.07-41.07s-41.07 18.424-41.07 41.07 18.425 41.07 41.071 41.07zm0-67.141c14.375 0 26.07 11.695 26.07 26.07 0 4.325-1.065 8.403-2.936 11.997l-5.48-5.48c-2.929-2.928-7.678-2.928-10.606 0-2.929 2.93-2.929 7.678 0 10.607l5.639 5.639c-3.758 2.103-8.083 3.307-12.687 3.307-14.375 0-26.07-11.695-26.07-26.07s11.695-26.07 26.07-26.07z"/><path d="m217.549 154.168h119.128c4.142 0 7.5-3.357 7.5-7.5s-3.358-7.5-7.5-7.5h-119.128c-4.142 0-7.5 3.357-7.5 7.5s3.358 7.5 7.5 7.5z"/><path d="m217.549 184.168h119.128c4.142 0 7.5-3.357 7.5-7.5s-3.358-7.5-7.5-7.5h-119.128c-4.142 0-7.5 3.357-7.5 7.5s3.358 7.5 7.5 7.5z"/><path d="m217.549 214.168h87.893c4.142 0 7.5-3.357 7.5-7.5s-3.358-7.5-7.5-7.5h-87.893c-4.142 0-7.5 3.357-7.5 7.5s3.358 7.5 7.5 7.5z"/><path d="m92.857 304.946c1.572.729 3.23 1.087 4.873 1.087 2.649 0 5.257-.931 7.391-2.734l55.114-46.572c.089-.075.203-.117.321-.117h212.12c10.752 0 19.5-8.748 19.5-19.5v-113.74c0-10.752-8.748-19.5-19.5-19.5h-310.255c-10.752 0-19.5 8.748-19.5 19.5v113.739c0 10.752 8.748 19.5 19.5 19.5h23.277c.276 0 .5.225.5.5v37.405c.001 4.528 2.552 8.526 6.659 10.432zm-7.158-63.337h-23.278c-2.481 0-4.5-2.019-4.5-4.5v-113.739c0-2.481 2.019-4.5 4.5-4.5h310.255c2.481 0 4.5 2.019 4.5 4.5v113.739c0 2.481-2.019 4.5-4.5 4.5h-212.12c-3.659 0-7.212 1.301-10.004 3.661l-49.354 41.704v-29.865c.001-8.547-6.952-15.5-15.499-15.5z"/><path d="m191.987 415.202 4.439-11.655h30.154l4.391 11.635c1.134 3.003 3.987 4.854 7.019 4.854.879 0 1.775-.156 2.646-.485 3.875-1.462 5.832-5.789 4.369-9.665l-24.982-66.198c-.026-.068-.053-.138-.082-.206-1.397-3.396-4.671-5.589-8.343-5.589-.003 0-.007 0-.01 0-3.675.005-6.949 2.205-8.34 5.607-.023.057-.045.112-.067.17l-25.211 66.194c-1.474 3.871.468 8.204 4.339 9.679s8.204-.47 9.678-4.341zm19.586-51.423 9.347 24.768h-18.78z"/><path d="m294.291 352.891h119.128c4.142 0 7.5-3.357 7.5-7.5s-3.358-7.5-7.5-7.5h-119.128c-4.142 0-7.5 3.357-7.5 7.5s3.357 7.5 7.5 7.5z"/><path d="m294.291 382.891h119.128c4.142 0 7.5-3.357 7.5-7.5s-3.358-7.5-7.5-7.5h-119.128c-4.142 0-7.5 3.357-7.5 7.5s3.357 7.5 7.5 7.5z"/><path d="m294.291 412.891h38.934c4.142 0 7.5-3.357 7.5-7.5s-3.358-7.5-7.5-7.5h-38.934c-4.142 0-7.5 3.357-7.5 7.5s3.357 7.5 7.5 7.5z"/></g></g></svg>