<svg id="Capa_1" enable-background="new 0 0 512 512" height="512" viewBox="0 0 512 512" width="512" xmlns="http://www.w3.org/2000/svg"><g><g><path d="m504.5 365.795v-249.066c0-8.38-6.794-15.174-15.174-15.174h-466.652c-8.381 0-15.174 6.794-15.174 15.174v249.066l249.768 19.638z" fill="#faf7f7"/><path d="m489.326 101.555h-30c8.38 0 15.174 6.794 15.174 15.174v249.066h30v-249.066c0-8.38-6.794-15.174-15.174-15.174z" fill="#f3eae6"/><path d="m315.213 497.024h-118.426l10-69.207h98.426z" fill="#7a6d79"/><path d="m309.352 456.466-4.139-28.649h-98.426l-4.14 28.649z" fill="#685e68"/><path d="m7.5 365.795v47.21c0 8.181 6.632 14.812 14.812 14.812h467.376c8.181 0 14.812-6.631 14.812-14.812v-47.21z" fill="#cbc4cc"/><path d="m474.5 365.795v17.209c0 8.181-6.632 14.812-14.812 14.812h-452.188v15.188c0 8.181 6.632 14.812 14.812 14.812h467.376c8.181 0 14.812-6.631 14.812-14.812v-47.209z" fill="#b5adb6"/><path d="m439.109 296.057c-3.484-8.125-10.071-14.52-18.296-17.763l-57.868-22.818c-3.164-1.248-5.244-4.303-5.244-7.705v-38.446h-63.405v38.446c0 3.401-2.08 6.457-5.244 7.705l-57.868 22.818c-8.224 3.243-14.811 9.638-18.296 17.763-8.659 20.191-13.124 41.932-13.124 63.902 0 3.223 2.613 5.836 5.836 5.836h240.795c3.223 0 5.836-2.613 5.836-5.836.002-21.97-4.463-43.71-13.122-63.902z" fill="#60b7ff"/><path d="m326 261.611c12.192 0 23.669-3.057 33.711-8.441-1.266-1.472-2.009-3.373-2.009-5.399v-38.446h-63.405v38.446c0 2.027-.743 3.927-2.009 5.399 10.043 5.384 21.52 8.441 33.712 8.441z" fill="#ffe5c2"/><circle cx="249.922" cy="126.935" fill="#918291" r="35.276"/><circle cx="400.499" cy="126.935" fill="#918291" r="35.276"/><path d="m338.937 51.581c-.358-.051-.712-.1-1.063-.147-7.885-1.068-15.863-1.068-23.748 0-.351.048-.705.097-1.063.147-21.915 3.103-39.921 18.909-46.049 40.177-10.259 35.609-18.94 96.932 29.305 127.508 18.143 11.498 41.219 11.498 59.363 0 48.245-30.575 39.564-91.899 29.305-127.508-6.129-21.268-24.135-37.074-46.05-40.177z" fill="#ffe5c2"/><path d="m405.194 365.795h-64.066v-34.903c0-4.893 3.967-8.86 8.86-8.86h46.345c4.893 0 8.86 3.967 8.86 8.86v34.903z" fill="#d8ecfe"/><path d="m384.919 91.528c-6.124-21.176-24.151-36.856-45.977-39.946-.36-.051-.716-.1-1.068-.148-7.885-1.068-15.863-1.068-23.748 0-.351.047-.706.097-1.065.148-21.914 3.102-39.919 18.908-46.047 40.175-2.67 9.268-5.231 20.281-6.712 32.038 52.833-1.374 77.212-37.932 77.212-37.932 14.365 27.383 37.043 33.461 53.6 33.723-1.533-10.267-3.822-19.854-6.195-28.058z" fill="#f6a96c"/><path d="m175.199 155.027h-129.127c-3.526 0-6.384 2.858-6.384 6.384v31.53c0 3.526 2.858 6.384 6.384 6.384h24.6c1.577 0 3.098.583 4.27 1.638l11.93 10.733c2.428 2.184 6.112 2.184 8.539 0l11.93-10.733c1.172-1.055 2.693-1.638 4.27-1.638h63.588c3.526 0 6.384-2.858 6.384-6.384v-31.53c0-3.525-2.859-6.384-6.384-6.384z" fill="#9be69d"/><path d="m46.072 249.29h129.126c3.526 0 6.384 2.858 6.384 6.384v31.53c0 3.526-2.858 6.384-6.384 6.384h-24.6c-1.577 0-3.098.583-4.27 1.638l-11.93 10.733c-2.428 2.184-6.112 2.184-8.539 0l-11.93-10.733c-1.172-1.055-2.693-1.638-4.27-1.638h-63.587c-3.526 0-6.384-2.858-6.384-6.384v-31.53c0-3.526 2.858-6.384 6.384-6.384z" fill="#ffe177"/></g><g><circle cx="256" cy="396.806" r="7.5"/><path d="m175.199 241.79h-129.127c-7.656 0-13.884 6.228-13.884 13.884v31.53c0 7.656 6.228 13.884 13.884 13.884h63.16l11.612 10.446c2.647 2.382 5.966 3.573 9.286 3.573 3.319-.001 6.639-1.191 9.286-3.572l11.612-10.447h24.171c7.656 0 13.884-6.228 13.884-13.884v-31.53c0-7.656-6.228-13.884-13.884-13.884zm-1.116 44.297h-23.483c-3.435 0-6.732 1.265-9.286 3.562l-11.184 10.061-11.184-10.061c-2.554-2.297-5.852-3.562-9.286-3.562h-62.472v-29.297h126.895z"/><path d="m489.688 94.055h-61.861c-4.447-3.703-9.656-6.514-15.351-8.178-2.969-43.727-39.467-78.401-83.934-78.401h-5.085c-44.317 0-80.716 34.441-83.9 77.959-6.326 1.581-12.1 4.57-16.964 8.62h-125.678c-4.142 0-7.5 3.358-7.5 7.5s3.358 7.5 7.5 7.5h114.161c-2.516 5.444-3.931 11.498-3.931 17.879 0 23.587 19.189 42.776 42.776 42.776 1.384 0 2.763-.087 4.135-.219 4.661 22.134 15.637 39.678 32.74 52.334 0 0-.099 26.345-.184 26.446-.005.006-.01.011-.015.017-.081.092-58.163 23.028-58.163 23.028-10.016 3.949-18.194 11.889-22.438 21.784-8.893 20.735-13.494 42.661-13.71 65.194h-177.286v-241.927c0-4.032 3.28-7.312 7.312-7.312h46.353c4.142 0 7.5-3.358 7.5-7.5s-3.358-7.5-7.5-7.5h-46.353c-12.303 0-22.312 10.009-22.312 22.312v296.638c0 12.303 10.009 22.312 22.312 22.312h175.814l-7.833 54.207h-16.924c-4.142 0-7.5 3.358-7.5 7.5s3.358 7.5 7.5 7.5h165.261c4.142 0 7.5-3.358 7.5-7.5s-3.358-7.5-7.5-7.5h-16.924l-7.833-54.207h73.199c4.142 0 7.5-3.358 7.5-7.5s-3.358-7.5-7.5-7.5h-364.76c-4.032 0-7.312-3.28-7.312-7.312v-39.709h482v39.709c0 4.032-3.28 7.312-7.312 7.312h-72.614c-4.142 0-7.5 3.358-7.5 7.5s3.358 7.5 7.5 7.5h72.614c12.303 0 22.312-10.009 22.312-22.312v-296.638c0-12.303-10.009-22.312-22.312-22.312zm-276.407 341.262h85.437l7.832 54.207h-101.101zm214.993-308.382c0 15.315-12.46 27.776-27.776 27.776-.146 0-.291-.009-.437-.011 1.557-19.218-1.236-38.563-5.206-54.967 1.847-.38 3.737-.574 5.643-.574 15.316 0 27.776 12.46 27.776 27.776zm-154.053-33.102c5.324-18.479 20.982-32.149 39.892-34.826l1.019-.141c7.212-.977 14.524-.977 21.732 0l1.026.142c18.886 2.674 34.519 16.257 39.825 34.604 1.793 6.201 3.221 12.074 4.352 17.65-16.562-2.772-29.295-12.46-37.911-28.884-1.226-2.336-3.595-3.845-6.229-3.993-2.63-.149-5.159 1.11-6.638 3.294-.833 1.23-20.314 29.315-62.154 33.997 1.438-8.132 3.286-15.593 5.086-21.843zm49.236-71.357h5.085c35.651 0 65.08 27.119 68.759 61.81-2.208.164-4.394.499-6.542.997-8.001-21.886-27.493-37.832-50.768-41.127l-1.11-.154c-8.547-1.159-17.216-1.158-25.758 0l-1.113.154c-23.356 3.307-42.911 19.405-50.89 41.498-2.11-.57-4.257-.986-6.439-1.227 3.613-34.759 33.077-61.951 68.776-61.951zm-101.311 104.459c0-15.315 12.46-27.776 27.776-27.776 2.441 0 4.83.314 7.143.929-3.7 15.469-6.676 35.021-5.118 54.543-.673.049-1.348.08-2.026.08-15.315-.001-27.775-12.461-27.775-27.776zm45.065 29.907c-.967-8.665-.868-17.457-.122-25.908 36.161-2.907 58.813-21.104 69.464-32.246 14.102 20.04 32.869 26.516 47.983 28.023 5.122 66.409-26.641 82.273-32.868 86.22-15.461 9.798-35.408 9.927-50.818.325-19.498-12.149-30.816-31.129-33.639-56.414zm83.074 92.483c-7.665 3.14-15.945 4.786-24.285 4.786s-16.621-1.646-24.285-4.786c.051-.515.083-18.774.083-18.774 7.685 3.198 15.901 4.805 24.131 4.804 8.259-.001 16.527-1.617 24.274-4.832 0 0 .031 18.287.082 18.802zm47.409 108.97h-49.066v-27.403c0-.75.61-1.36 1.36-1.36h46.345c.75 0 1.36.61 1.36 1.36v27.403zm15 0v-27.403c0-9.021-7.339-16.36-16.36-16.36h-46.345c-9.021 0-16.36 7.339-16.36 16.36v27.403h-126.352c.216-20.489 4.419-40.425 12.506-59.282 2.677-6.242 7.835-11.251 14.153-13.742 0 0 58.67-23.181 59.064-23.376 10.293 4.731 21.606 7.216 33 7.216s22.707-2.485 33-7.216c.394.195 59.063 23.376 59.063 23.376 6.318 2.491 11.477 7.5 14.153 13.742 8.087 18.857 12.29 38.793 12.506 59.282zm84.306 0h-37.287c-.217-22.533-4.818-44.459-13.71-65.194-4.244-9.895-12.422-17.835-22.438-21.784 0 0-58.081-22.935-58.163-23.028-.005-.006-.011-.012-.017-.018-.085-.102-.197-26.283-.206-26.432 5.265-3.905 9.987-8.308 14.087-13.142.005-.005.008-.011.013-.017 4.908-5.79 9.025-12.317 12.239-19.401 2.877-6.343 4.953-12.94 6.385-19.654.864.052 1.73.086 2.594.086 23.587 0 42.776-19.189 42.776-42.776 0-6.381-1.414-12.435-3.93-17.879h50.344c4.032 0 7.312 3.28 7.312 7.312v241.927z"/><path d="m189.083 161.411c0-7.656-6.228-13.884-13.884-13.884h-129.127c-7.656 0-13.884 6.228-13.884 13.884v31.53c0 7.656 6.228 13.884 13.884 13.884h24.171l11.612 10.447c2.647 2.381 5.967 3.572 9.286 3.572 3.32 0 6.639-1.191 9.286-3.572l11.612-10.447h63.16c7.656 0 13.884-6.228 13.884-13.884zm-15 30.414h-62.472c-3.435 0-6.732 1.265-9.286 3.562l-11.184 10.062-11.184-10.062c-2.554-2.297-5.851-3.562-9.286-3.562h-23.483v-29.297h126.895z"/></g></g></svg>