<svg id="Capa_1" enable-background="new 0 0 512 512" height="512" viewBox="0 0 512 512" width="512" xmlns="http://www.w3.org/2000/svg"><g><g><path d="m310.618 24.266v363.081h-297.096c-3.326 0-6.022-2.696-6.022-6.022v-300.318l62.763-62.763h234.332c3.326 0 6.023 2.696 6.023 6.022z" fill="#eaf6ff"/><path d="m304.595 18.244h-20c3.326 0 6.022 2.696 6.022 6.022v363.081h20v-363.081c.001-3.326-2.696-6.022-6.022-6.022z" fill="#d5e3f4"/><path d="m53.873 265.253v21.951c0 2.761 2.239 5 5 5h85.402v-31.951h-85.402c-2.762 0-5 2.239-5 5z" fill="#6cf5c2"/><g><path d="m107.439 221.815v256.193h370.031v-256.193c0-5.523-4.477-10-10-10h-350.031c-5.522 0-10 4.477-10 10z" fill="#528fd8"/><path d="m467.47 211.815h-20c5.523 0 10 4.477 10 10v256.193h20v-256.193c0-5.523-4.477-10-10-10z" fill="#0473ce"/><path d="m139.44 475.507v-226.692c0-2.761 2.239-5 5-5h296.031c2.761 0 5 2.239 5 5v226.692z" fill="#eaf6ff"/><path d="m315.647 448.636-6.381 12.719c-.967 1.928-2.939 3.145-5.096 3.145h-23.432c-2.157 0-4.129-1.217-5.096-3.145l-6.381-12.719c-1.493-2.976-4.538-4.855-7.867-4.855h-175.984c-2.761 0-5 2.239-5 5v24.176c0 11.485 9.31 20.795 20.795 20.795h382.499c11.485 0 20.795-9.31 20.795-20.795v-24.176c0-2.761-2.239-5-5-5h-175.985c-3.329 0-6.374 1.879-7.867 4.855z" fill="#62dbfb"/><path d="m499.5 443.781h-20c2.761 0 5 2.239 5 5v24.176c0 11.485-9.311 20.795-20.795 20.795h20c11.485 0 20.795-9.31 20.795-20.795v-24.176c0-2.761-2.239-5-5-5z" fill="#01c0fa"/></g><path d="m204.6 273.969-81.67-81.67c-1.648-1.648-4.321-1.648-5.969 0l-19.054 19.054c-1.648 1.648-1.648 4.321 0 5.969l81.67 81.67c1.648 1.648 1.648 4.321 0 5.969l-14.731 14.73c-1.524 1.524-.568 4.135 1.58 4.315l64.966 5.424c2.081.174 3.82-1.565 3.646-3.646l-5.424-64.966c-.179-2.148-2.79-3.105-4.315-1.58l-14.731 14.73c-1.647 1.649-4.319 1.649-5.968.001z" fill="#fe76a8"/><path d="m70.264 18.244-62.764 62.763h49.339c7.414 0 13.424-6.01 13.424-13.424v-49.339z" fill="#d5e3f4"/><path d="m242.948 127.051c-1.326 19.21-16.882 34.776-36.091 36.105-22.046 1.525-40.528-15.312-41.681-36.746-.062-1.151.85-2.125 2.003-2.125h33.898c1.662 0 3.01-1.347 3.01-3.01v-33.889c0-1.153.974-2.065 2.125-2.003 21.432 1.152 38.258 19.622 36.736 41.668z" fill="#62dbfb"/><path d="m378.311 366.598c-1.326 19.21-16.882 34.776-36.091 36.105-22.046 1.525-40.528-15.312-41.681-36.746-.062-1.151.85-2.125 2.003-2.125h33.898c1.662 0 3.01-1.347 3.01-3.01v-33.888c0-1.153.974-2.065 2.125-2.003 21.432 1.151 38.259 19.621 36.736 41.667z" fill="#62dbfb"/><g fill="#fe76a8"><path d="m177.177 60.476v32.696c0 2.32-1.881 4.201-4.201 4.201h-32.707c-1.152 0-2.065-.973-2.003-2.123 1.065-19.827 16.96-35.712 36.788-36.777 1.15-.062 2.123.851 2.123 2.003z"/><path d="m312.54 300.023v32.696c0 2.32-1.881 4.201-4.201 4.201h-32.707c-1.152 0-2.065-.973-2.003-2.123 1.065-19.827 16.96-35.712 36.788-36.777 1.15-.062 2.123.851 2.123 2.003z"/></g></g><g><path d="m499.5 436.281h-14.53v-214.463c0-9.649-7.851-17.5-17.5-17.5h-149.35v-113.97c0-4.142-3.357-7.5-7.5-7.5s-7.5 3.358-7.5 7.5v113.97h-157.564l-17.322-17.322c-4.571-4.571-12.008-4.569-16.577 0l-19.053 19.054c-2.214 2.214-3.433 5.157-3.433 8.288s1.22 6.075 3.433 8.288l7.337 7.337v22.786h-41.071c-6.893 0-12.5 5.607-12.5 12.5v21.96c0 6.893 5.607 12.5 12.5 12.5h41.07v19.15h-46.07c-4.143 0-7.5 3.358-7.5 7.5s3.357 7.5 7.5 7.5h46.07v12.55h-46.07c-4.143 0-7.5 3.358-7.5 7.5s3.357 7.5 7.5 7.5h46.07v18.44h-84.94v-291.341h41.839c11.537 0 20.923-9.387 20.923-20.925v-41.836h225.358v29.601c0 4.142 3.357 7.5 7.5 7.5s7.5-3.358 7.5-7.5v-31.08c0-7.456-6.065-13.521-13.521-13.521h-234.337c-2.059 0-3.962.849-5.304 2.197l-62.762 62.761c-1.322 1.327-2.196 3.245-2.196 5.303v300.32c0 7.455 6.064 13.52 13.52 13.52h86.42v41.433h-14.53c-6.893 0-12.5 5.607-12.5 12.5v24.176c0 15.602 12.693 28.295 28.296 28.295h93.017c4.143 0 7.5-3.358 7.5-7.5s-3.357-7.5-7.5-7.5h-93.017c-7.331 0-13.296-5.964-13.296-13.295v-21.676h173.485c.495 0 .941.274 1.163.718l6.381 12.719c2.253 4.492 6.774 7.282 11.8 7.282h23.432c5.025 0 9.547-2.79 11.8-7.281l6.38-12.719c.223-.443.669-.718 1.164-.718h173.485v21.676c0 7.331-5.964 13.295-13.295 13.295h-254.482c-4.143 0-7.5 3.358-7.5 7.5s3.357 7.5 7.5 7.5h254.482c15.602 0 28.295-12.693 28.295-28.295v-24.176c0-6.893-5.607-12.501-12.5-12.501zm-442.661-362.773h-31.232l37.155-37.154v31.229c0 3.267-2.658 5.925-5.923 5.925zm410.631 145.81c1.379 0 2.5 1.122 2.5 2.5v214.463h-17v-187.463c0-6.893-5.607-12.5-12.5-12.5h-262.914l-17-17zm-259.885 47.029-15.029-15.029h32.022c-1.691.439-3.276 1.31-4.582 2.617zm-87.64-66.426 79.352 79.351c4.57 4.57 12.006 4.57 16.576 0l7.158-7.159 4.128 49.438-49.438-4.128 7.159-7.159c4.569-4.57 4.569-12.006 0-16.576l-79.352-79.352zm-58.575 84.787v-16.96h38.57v16.96zm53.57-39.745 17 17v174.319h-17zm194.003 200.31-5.882 11.727h-21.211l-5.883-11.725c-2.781-5.547-8.364-8.994-14.571-8.994h-114.456v-159.319l25.015 25.014-12.412 12.412c-2.794 2.794-3.685 6.834-2.326 10.544s4.649 6.219 8.586 6.547c0 0 65.574 5.462 65.877 5.462 2.873 0 5.634-1.135 7.686-3.187 2.268-2.268 3.415-5.401 3.147-8.596l-5.424-64.964c-.346-4.149-3.141-7.754-7.556-8.879h208.437v184.963h-114.455c-6.205.003-11.788 3.449-14.572 8.995z"/><path d="m173.318 159.104c8.567 7.575 19.378 11.648 30.746 11.648 1.098 0 2.203-.038 3.31-.115 22.961-1.588 41.471-20.104 43.057-43.07.867-12.567-3.228-24.659-11.531-34.049-8.315-9.403-19.781-14.952-32.287-15.624-2.612-.139-5.173.808-7.061 2.598-1.884 1.787-2.965 4.3-2.965 6.895v29.397h-29.408c-2.595 0-5.107 1.081-6.895 2.965-1.79 1.888-2.736 4.461-2.598 7.063.673 12.505 6.224 23.973 15.632 32.292zm27.759-27.321c5.795 0 10.51-4.715 10.51-10.51v-27.554c6.181 1.5 11.755 4.85 16.075 9.736 5.621 6.356 8.393 14.553 7.804 23.08-1.072 15.538-13.595 28.064-29.127 29.139-8.523.584-16.725-2.183-23.084-7.807-4.891-4.324-8.243-9.901-9.744-16.083h27.566z"/><path d="m53.873 139.635h22.982c4.143 0 7.5-3.358 7.5-7.5s-3.357-7.5-7.5-7.5h-22.982c-4.143 0-7.5 3.358-7.5 7.5s3.357 7.5 7.5 7.5z"/><path d="m53.873 165.679h52.982c4.143 0 7.5-3.358 7.5-7.5s-3.357-7.5-7.5-7.5h-52.982c-4.143 0-7.5 3.358-7.5 7.5s3.357 7.5 7.5 7.5z"/><path d="m287.136 61.961c0-4.142-3.357-7.5-7.5-7.5h-39.117c-4.143 0-7.5 3.358-7.5 7.5s3.357 7.5 7.5 7.5h39.117c4.142 0 7.5-3.358 7.5-7.5z"/><path d="m341.979 317.441c-2.596-.137-5.173.806-7.062 2.596-1.886 1.786-2.967 4.3-2.967 6.896v29.397h-29.408c-2.595 0-5.107 1.081-6.895 2.965-1.79 1.888-2.736 4.461-2.598 7.063.673 12.506 6.225 23.975 15.633 32.293 8.567 7.574 19.378 11.647 30.746 11.647 24.708 0 44.716-19.309 46.365-43.185.867-12.566-3.228-24.659-11.531-34.049-8.315-9.402-19.781-14.951-32.283-15.623zm28.85 48.64c-1.072 15.538-13.595 28.065-29.127 29.14-8.523.586-16.724-2.183-23.083-7.806-4.891-4.324-8.243-9.901-9.744-16.084h27.565c5.795 0 10.51-4.714 10.51-10.509v-27.555c6.181 1.5 11.755 4.85 16.075 9.736 5.621 6.355 8.393 14.551 7.804 23.078z"/><path d="m189.236 379.182h22.982c4.143 0 7.5-3.358 7.5-7.5s-3.357-7.5-7.5-7.5h-22.982c-4.143 0-7.5 3.358-7.5 7.5s3.358 7.5 7.5 7.5z"/><path d="m242.219 390.226h-52.982c-4.143 0-7.5 3.358-7.5 7.5s3.357 7.5 7.5 7.5h52.982c4.143 0 7.5-3.358 7.5-7.5s-3.358-7.5-7.5-7.5z"/><path d="m414.999 294.008h-39.117c-4.143 0-7.5 3.358-7.5 7.5s3.357 7.5 7.5 7.5h39.117c4.143 0 7.5-3.358 7.5-7.5s-3.357-7.5-7.5-7.5z"/><path d="m184.677 93.173v-32.697c0-2.596-1.081-5.11-2.967-6.897-1.89-1.789-4.455-2.729-7.059-2.595-23.737 1.274-42.6 20.132-43.875 43.866-.139 2.598.808 5.17 2.598 7.058 1.786 1.885 4.3 2.966 6.896 2.966h32.706c6.452 0 11.701-5.249 11.701-11.701zm-15-3.299h-23.075c2.765-11.389 11.682-20.302 23.075-23.065z"/><path d="m320.04 332.719v-32.696c0-2.597-1.081-5.11-2.968-6.897-1.889-1.79-4.463-2.728-7.058-2.595-23.737 1.274-42.6 20.132-43.875 43.866-.139 2.598.808 5.17 2.598 7.058 1.786 1.885 4.3 2.966 6.896 2.966h32.706c6.452 0 11.701-5.249 11.701-11.702zm-15-3.298h-23.075c2.765-11.389 11.682-20.302 23.075-23.065z"/></g></g></svg>