<?xml version="1.0" encoding="iso-8859-1"?>
<!-- Generator: Adobe Illustrator 19.0.0, SVG Export Plug-In . SVG Version: 6.00 Build 0)  -->
<svg xmlns="http://www.w3.org/2000/svg" xmlns:xlink="http://www.w3.org/1999/xlink" version="1.1" id="Layer_1" x="0px" y="0px" viewBox="0 0 512 512" style="enable-background:new 0 0 512 512;" xml:space="preserve" width="512" height="512">
<g>
	<g>
		<g>
			<g>
				<g>
					<g>
						<polyline style="fill:#FFFFFF;" points="428.899,71.001 428.899,10 41.918,10 41.918,502 428.899,502       "/>
					</g>
				</g>
			</g>
		</g>
	</g>
	<g>
		<g>
			<g>
				<g>
					<g>
						<g>
							<g>
								<path style="fill:#FF5F6B;" d="M338.218,153.871c0,37.529-20.114,70.367-50.152,88.314          c-15.404,9.208-33.416,14.496-52.658,14.496c-19.242,0-37.253-5.288-52.658-14.496          c-30.038-17.947-50.152-50.785-50.152-88.314c0-56.78,46.03-102.81,102.81-102.81S338.218,97.091,338.218,153.871z"/>
							</g>
						</g>
					</g>
				</g>
			</g>
		</g>
		<g>
			<g>
				<g>
					<g>
						<g>
							<g>
								<g>
									<circle style="fill:#FFDAA0;" cx="235.408" cy="131.353" r="42.725"/>
								</g>
							</g>
						</g>
					</g>
				</g>
			</g>
			<g>
				<g>
					<g>
						<g>
							<g>
								<g>
									<path style="fill:#C7EAFF;" d="M288.066,190.849v51.336c-15.404,9.208-33.416,14.496-52.658,14.496           c-19.242,0-37.253-5.288-52.658-14.496v-51.336c0-9.263,7.5-16.772,16.763-16.772h71.79           C280.566,174.077,288.066,181.586,288.066,190.849z"/>
								</g>
							</g>
						</g>
					</g>
				</g>
			</g>
		</g>
	</g>
	<g>
		<g>
			<g>
				<g>
					<g>
						<g>
							<g>
								<g>
									<circle style="fill:#BAEE83;" cx="126.352" cy="314.007" r="34.229"/>
								</g>
							</g>
						</g>
					</g>
				</g>
			</g>
			<g>
				<g>
					<g>
						<g>
							<g>
								<g>
									<path d="M126.352,358.236c-24.388,0-44.229-19.841-44.229-44.229c0-24.388,19.841-44.229,44.229-44.229           c24.388,0,44.23,19.841,44.23,44.229C170.582,338.395,150.741,358.236,126.352,358.236z M126.352,289.777           c-13.36,0-24.229,10.869-24.229,24.229c0,13.36,10.869,24.229,24.229,24.229c13.36,0,24.23-10.869,24.23-24.229           C150.582,300.647,139.713,289.777,126.352,289.777z"/>
								</g>
							</g>
						</g>
					</g>
				</g>
			</g>
		</g>
		<g>
			<g>
				<g>
					<g>
						<g>
							<g>
								<g>
									<path d="M296.408,304.441H205.52c-5.523,0-10-4.477-10-10c0-5.523,4.477-10,10-10h90.888c5.523,0,10,4.477,10,10           C306.408,299.964,301.931,304.441,296.408,304.441z"/>
								</g>
							</g>
						</g>
					</g>
				</g>
			</g>
			<g>
				<g>
					<g>
						<g>
							<g>
								<g>
									<path d="M342.507,343.572H205.52c-5.523,0-10-4.477-10-10c0-5.523,4.477-10,10-10h136.987c5.523,0,10,4.477,10,10           C352.507,339.095,348.03,343.572,342.507,343.572z"/>
								</g>
							</g>
						</g>
					</g>
				</g>
			</g>
		</g>
	</g>
	<g>
		<g>
			<g>
				<g>
					<g>
						<g>
							<g>
								<g>
									<circle style="fill:#BAEE83;" cx="126.352" cy="427.232" r="34.229"/>
								</g>
							</g>
						</g>
					</g>
				</g>
			</g>
			<g>
				<g>
					<g>
						<g>
							<g>
								<g>
									<path d="M126.352,471.461c-24.388,0-44.229-19.841-44.229-44.229c0-24.388,19.841-44.229,44.229-44.229           c24.388,0,44.23,19.841,44.23,44.229C170.582,451.62,150.741,471.461,126.352,471.461z M126.352,403.002           c-13.36,0-24.229,10.869-24.229,24.229c0,13.36,10.869,24.229,24.229,24.229c13.36,0,24.23-10.869,24.23-24.229           C150.582,413.872,139.713,403.002,126.352,403.002z"/>
								</g>
							</g>
						</g>
					</g>
				</g>
			</g>
		</g>
		<g>
			<g>
				<g>
					<g>
						<g>
							<g>
								<g>
									<path d="M296.408,417.667H205.52c-5.523,0-10-4.477-10-10c0-5.523,4.477-10,10-10h90.888c5.523,0,10,4.477,10,10           C306.408,413.19,301.931,417.667,296.408,417.667z"/>
								</g>
							</g>
						</g>
					</g>
				</g>
			</g>
			<g>
				<g>
					<g>
						<g>
							<g>
								<g>
									<path d="M342.507,456.797H205.52c-5.523,0-10-4.477-10-10c0-5.523,4.477-10,10-10h136.987c5.523,0,10,4.477,10,10           C352.507,452.32,348.03,456.797,342.507,456.797z"/>
								</g>
							</g>
						</g>
					</g>
				</g>
			</g>
		</g>
	</g>
	<g>
		<g>
			<g>
				<g>
					<g>
						<g>
							<polyline style="fill:#C7EAFF;" points="428.899,449.026 470.082,449.026 470.082,172.482 428.899,172.482        "/>
						</g>
					</g>
				</g>
			</g>
		</g>
	</g>
	<g>
		<g>
			<g>
				<g>
					<g>
						<g>
							<g>
								<polyline style="fill:#7ACCFF;" points="428.899,233.667 428.899,449.026 387.715,449.026 387.715,144.875 428.899,164.887                   "/>
							</g>
						</g>
					</g>
				</g>
			</g>
		</g>
		<g>
			<g>
				<g>
					<g>
						<g>
							<path style="fill:#FF5F6B;" d="M402.33,502h53.137c8.072,0,14.615-6.543,14.615-14.615v-38.36h-82.366v38.36         C387.715,495.457,394.259,502,402.33,502z"/>
						</g>
					</g>
				</g>
			</g>
		</g>
	</g>
	<g>
		<g>
			<g>
				<g>
					<g>
						<polygon style="fill:#6E78FF;" points="460.803,127.038 396.995,127.038 428.899,71.589       "/>
					</g>
				</g>
			</g>
		</g>
	</g>
	<g>
		<g>
			<g>
				<g>
					<g>
						<g>
							<g>
								<polygon style="fill:#FFDAA0;" points="470.082,143.166 470.082,172.482 387.715,172.482 387.715,143.166 396.995,127.038           460.803,127.038         "/>
							</g>
						</g>
					</g>
				</g>
			</g>
		</g>
		<g>
			<path d="M235.408,41.061c-62.204,0-112.81,50.607-112.81,112.81c0,19.872,5.243,39.416,15.161,56.517     c9.611,16.572,23.383,30.527,39.827,40.361c0.011,0.007,0.021,0.013,0.032,0.02c17.415,10.41,37.398,15.912,57.789,15.912     c20.391,0,40.374-5.503,57.789-15.912c3.02-1.805,4.869-5.065,4.869-8.583v-51.336c0-13.04-9.369-23.933-21.727-26.297     c7.371-9.07,11.793-20.628,11.793-33.199c0-29.073-23.652-52.725-52.725-52.725s-52.725,23.652-52.725,52.725     c0,12.571,4.423,24.129,11.794,33.199c-12.358,2.364-21.726,13.256-21.726,26.297v31.453     c-18.927-17.419-30.152-42.297-30.152-68.431c0-51.176,41.634-92.81,92.81-92.81c51.176,0,92.81,41.634,92.81,92.81     c0,11.128-1.947,22.007-5.786,32.334c-1.925,5.177,0.711,10.933,5.888,12.858c5.178,1.925,10.933-0.711,12.858-5.888     c4.671-12.564,7.04-25.788,7.04-39.303C348.218,91.668,297.612,41.061,235.408,41.061z M235.408,98.628     c18.045,0,32.725,14.68,32.725,32.725c0,17.968-14.556,32.599-32.495,32.724h-0.461c-17.939-0.124-32.495-14.756-32.495-32.724     C202.683,113.308,217.363,98.628,235.408,98.628z M192.75,190.849c0-3.734,3.034-6.772,6.763-6.772h35.516     c0.126,0.001,0.253,0.001,0.379,0.001s0.253,0,0.379-0.001h35.516c3.729,0,6.763,3.038,6.763,6.772v45.466     c-13.118,6.797-27.751,10.366-42.658,10.366c-14.906,0-29.54-3.569-42.658-10.366V190.849z"/>
			<path d="M478.75,138.179l-39.851-69.262V10c0-5.523-4.477-10-10-10H41.918c-5.523,0-10,4.477-10,10v492c0,5.523,4.477,10,10,10     h413.549c13.573,0,24.615-11.042,24.615-24.615V143.166C480.082,141.415,479.623,139.696,478.75,138.179z M397.715,162.482     v-16.645l5.063-8.799h52.241l5.063,8.799v16.645H397.715z M414.286,117.038l14.613-25.398l14.613,25.398H414.286z M51.918,20     h366.981v48.917l-39.851,69.262c-0.873,1.517-1.333,3.236-1.333,4.987v205.07c0,5.523,4.477,10,10,10c5.523,0,10-4.477,10-10     V182.482h62.367v256.543h-21.184V233.667c0-5.523-4.477-10-10-10c-5.523,0-10,4.477-10,10v205.359h-31.183     c-5.523,0-10,4.477-10,10v38.359c0,1.577,0.149,3.119,0.434,4.615H51.918V20z M460.082,487.385c0,2.544-2.07,4.615-4.615,4.615     H402.33c-2.544,0-4.615-2.07-4.615-4.615v-28.359h62.367V487.385z"/>
		</g>
	</g>
	<g>
		<g>
			<g>
				<g>
					<g>
						<g>
							<path d="M387.72,403c-0.66,0-1.31-0.06-1.96-0.19c-0.64-0.13-1.27-0.32-1.87-0.57c-0.6-0.25-1.18-0.56-1.73-0.92         c-0.54-0.37-1.05-0.79-1.52-1.25c-0.46-0.46-0.87-0.97-1.24-1.52c-0.36-0.54-0.67-1.12-0.92-1.72         c-0.25-0.61-0.44-1.24-0.57-1.87c-0.13-0.65-0.19-1.31-0.19-1.96s0.06-1.31,0.19-1.95c0.13-0.64,0.32-1.27,0.57-1.87         c0.25-0.61,0.56-1.19,0.92-1.73c0.37-0.55,0.78-1.06,1.24-1.52c0.47-0.46,0.98-0.88,1.52-1.24c0.55-0.36,1.13-0.67,1.73-0.92         c0.6-0.25,1.23-0.44,1.87-0.57c1.29-0.26,2.62-0.26,3.91,0c0.64,0.13,1.27,0.32,1.87,0.57c0.6,0.25,1.18,0.56,1.73,0.92         c0.54,0.36,1.06,0.78,1.52,1.24c0.46,0.46,0.88,0.97,1.24,1.52c0.36,0.54,0.67,1.12,0.92,1.73c0.25,0.6,0.44,1.23,0.57,1.87         c0.13,0.64,0.19,1.3,0.19,1.95s-0.06,1.31-0.19,1.96c-0.13,0.63-0.32,1.26-0.57,1.87c-0.25,0.6-0.56,1.18-0.92,1.72         c-0.36,0.55-0.78,1.06-1.24,1.52c-0.46,0.46-0.98,0.88-1.52,1.25c-0.55,0.36-1.13,0.67-1.73,0.92         c-0.6,0.25-1.23,0.44-1.87,0.57C389.03,402.94,388.37,403,387.72,403z"/>
						</g>
					</g>
				</g>
			</g>
		</g>
	</g>
</g>















</svg>
