<svg id="Layer_1" enable-background="new 0 0 64 64" height="512" viewBox="0 0 64 64" width="512" xmlns="http://www.w3.org/2000/svg"><g><path d="m46 24-4 4v-4h-2c-.552 0-1-.448-1-1v-9h-31c-1.105 0-2 .895-2 2v36h48v-28z" fill="#9ac8ff"/><path d="m46 24-4 4v-4h-2c-.552 0-1-.448-1-1v-5h-29v30h40v-24z" fill="#fff"/><path d="m57 60h-54c-1.105 0-2-.895-2-2v-6h58v6c0 1.105-.895 2-2 2z" fill="#2487ff"/><g fill="#ffc377"><path d="m24 33h-8v-2c0-2.209 1.791-4 4-4 2.209 0 4 1.791 4 4z"/><path d="m20 27c-1.657 0-3-1.343-3-3 0-1.657 1.343-3 3-3 1.657 0 3 1.343 3 3 0 1.657-1.343 3-3 3z"/><path d="m24 48h-8v-2c0-2.209 1.791-4 4-4 2.209 0 4 1.791 4 4z"/><path d="m20 42c-1.657 0-3-1.343-3-3 0-1.657 1.343-3 3-3 1.657 0 3 1.343 3 3 0 1.657-1.343 3-3 3z"/><path d="m44 48h-8v-2c0-2.209 1.791-4 4-4 2.209 0 4 1.791 4 4z"/><path d="m40 42c-1.657 0-3-1.343-3-3 0-1.657 1.343-3 3-3 1.657 0 3 1.343 3 3 0 1.657-1.343 3-3 3z"/><path d="m39 5v18c0 .552.448 1 1 1h2v4l4-4h16c.552 0 1-.448 1-1v-18c0-.552-.448-1-1-1h-22c-.552 0-1 .448-1 1z"/></g><path d="m52 17h-6c-.552 0-1-.448-1-1v-4c0-.552.448-1 1-1h6c.552 0 1 .448 1 1v4c0 .552-.448 1-1 1z" fill="#ff3f62"/><path d="m57 17-4-3 4-3z" fill="#ff3f62"/><path d="m62 3h-22c-1.103 0-2 .897-2 2v8h-30c-1.654 0-3 1.346-3 3v35h-4c-.552 0-1 .448-1 1v6c0 1.654 1.346 3 3 3h54c1.654 0 3-1.346 3-3v-6c0-.552-.448-1-1-1h-4v-26h7c1.103 0 2-.897 2-2v-18c0-1.103-.897-2-2-2zm-20.383 25.924c.124.051.254.076.383.076.26 0 .516-.102.707-.293l3.707-3.707h2.586v7h-18v-13h7v4c0 1.103.897 2 2 2h1v3c0 .404.244.769.617.924zm-4.617 18.076v-1c0-1.654 1.346-3 3-3s3 1.346 3 3v1zm1-8c0-1.103.897-2 2-2s2 .897 2 2-.897 2-2 2-2-.897-2-2zm4.793 2.855c.743-.727 1.207-1.737 1.207-2.855 0-2.206-1.794-4-4-4s-4 1.794-4 4c0 1.118.464 2.128 1.207 2.855-1.331.9-2.207 2.422-2.207 4.145v1h-4v-13h18v13h-4v-1c0-1.723-.876-3.245-2.207-4.145zm-17.793 5.145v-1c0-1.723-.876-3.245-2.207-4.145.743-.727 1.207-1.737 1.207-2.855 0-2.206-1.794-4-4-4s-4 1.794-4 4c0 1.118.464 2.128 1.207 2.855-1.331.9-2.207 2.422-2.207 4.145v1h-4v-13h18v13zm-8 0v-1c0-1.654 1.346-3 3-3s3 1.346 3 3v1zm1-8c0-1.103.897-2 2-2s2 .897 2 2-.897 2-2 2-2-.897-2-2zm-1-7v-1c0-1.654 1.346-3 3-3s3 1.346 3 3v1zm1-8c0-1.103.897-2 2-2s2 .897 2 2-.897 2-2 2-2-.897-2-2zm4.793 2.855c.743-.727 1.207-1.737 1.207-2.855 0-2.206-1.794-4-4-4s-4 1.794-4 4c0 1.118.464 2.128 1.207 2.855-1.331.899-2.207 2.422-2.207 4.145v1h-4v-13h18v13h-4v-1c0-1.723-.876-3.246-2.207-4.145zm35.207 31.145c0 .551-.449 1-1 1h-54c-.551 0-1-.449-1-1v-5h56zm-5-7h-46v-35c0-.551.449-1 1-1h30v2h-28c-.552 0-1 .448-1 1v30c0 .552.448 1 1 1h40c.552 0 1-.448 1-1v-23h2zm9-28h-16c-.265 0-.52.105-.707.293l-2.293 2.293v-1.586c0-.552-.448-1-1-1h-2v-18h22z" fill="#002e6c"/><path d="m46 18h6c1.103 0 2-.897 2-2l2.4 1.8c.177.132.388.2.6.2.152 0 .306-.035.447-.105.339-.17.553-.516.553-.895v-6c0-.379-.214-.725-.553-.894-.339-.17-.745-.133-1.047.095l-2.4 1.799c0-1.103-.897-2-2-2h-6c-1.103 0-2 .897-2 2v4c0 1.103.897 2 2 2zm10-5v2l-1.333-1zm-10-1h6l.001 1.997c0 .001-.001.002-.001.003s.001.002.001.003v1.997h-6.001z" fill="#002e6c"/></g></svg>