<svg id="Capa_1" enable-background="new 0 0 512 512" height="512" viewBox="0 0 512 512" width="512" xmlns="http://www.w3.org/2000/svg"><g><g><path d="m233.5 203.5v-120c0-8.25-6.75-15-15-15h-191l-10 145z" fill="#f5fcff"/><path d="m27.5 68.5h-5c-8.25 0-15 6.75-15 15v120h20z" fill="#d3effd"/><path d="m27.5 203.5-10 20 216-5v-15z" fill="#ff8086"/><path d="m27.5 211v-7.5h-20v15c0 8.25 6.75 15 15 15h196c8.25 0 15-6.75 15-15h-198.5c-4.125 0-7.5-3.375-7.5-7.5z" fill="#d16161"/><path d="m154.616 131.191-46.235-29.722-3 56.043c0 4.523 5.004 7.255 8.809 4.81l41.768-29.922c-.37-.454-.811-.868-1.342-1.209z" fill="#d16161"/><path d="m108.38 152.512v-51.043l-3.191-2.051c-3.805-2.446-8.809.286-8.809 4.809v63.547c0 4.523 5.004 7.255 8.809 4.809l49.426-31.773c2.97-1.909 3.41-5.875 1.342-8.41l-38.768 24.922c-3.805 2.445-8.809-.287-8.809-4.81z" fill="#ae3244"/><path d="m504.5 203.5v-120c0-8.25-6.75-15-15-15h-191l-10 145z" fill="#f5fcff"/><path d="m298.5 68.5h-5c-8.25 0-15 6.75-15 15v120h20z" fill="#d3effd"/><path d="m298.5 203.5-10 20 216-5v-15z" fill="#d3effd"/><path d="m298.5 211v-7.5h-20v15c0 8.25 6.75 15 15 15h196c8.25 0 15-6.75 15-15h-198.5c-4.125 0-7.5-3.375-7.5-7.5z" fill="#9ec8fc"/><path d="m425.616 131.191-46.235-29.722-3 56.043c0 4.523 5.004 7.255 8.809 4.81l41.768-29.922c-.37-.454-.811-.868-1.342-1.209z" fill="#9ec8fc"/><path d="m379.38 152.512v-51.043l-3.191-2.051c-3.805-2.446-8.809.286-8.809 4.809v63.547c0 4.523 5.004 7.255 8.809 4.809l49.426-31.773c2.97-1.909 3.41-5.875 1.342-8.41l-38.768 24.922c-3.805 2.445-8.809-.287-8.809-4.81z" fill="#7398d4"/><path d="m233.5 413.5v-120c0-8.25-6.75-15-15-15h-191l-10 145z" fill="#f5fcff"/><path d="m27.5 278.5h-5c-8.25 0-15 6.75-15 15v120h20z" fill="#d3effd"/><path d="m27.5 413.5-10 20 216-5v-15z" fill="#d3effd"/><path d="m27.5 421v-7.5h-20v15c0 8.25 6.75 15 15 15h196c8.25 0 15-6.75 15-15h-198.5c-4.125 0-7.5-3.375-7.5-7.5z" fill="#9ec8fc"/><path d="m154.616 341.191-46.235-29.722-3 56.043c0 4.523 5.004 7.255 8.809 4.81l41.768-29.922c-.37-.454-.811-.868-1.342-1.209z" fill="#9ec8fc"/><path d="m108.38 362.512v-51.043l-3.191-2.051c-3.805-2.446-8.809.286-8.809 4.809v63.547c0 4.523 5.004 7.255 8.809 4.809l49.426-31.773c2.97-1.909 3.41-5.875 1.342-8.41l-38.768 24.922c-3.805 2.445-8.809-.287-8.809-4.81z" fill="#7398d4"/><path d="m504.5 413.5v-120c0-8.25-6.75-15-15-15h-191l-10 145z" fill="#f5fcff"/><path d="m298.5 278.5h-5c-8.25 0-15 6.75-15 15v120h20z" fill="#d3effd"/><path d="m298.5 413.5-10 20 216-5v-15z" fill="#d3effd"/><path d="m298.5 421v-7.5h-20v15c0 8.25 6.75 15 15 15h196c8.25 0 15-6.75 15-15h-198.5c-4.125 0-7.5-3.375-7.5-7.5z" fill="#9ec8fc"/><path d="m425.616 341.191-46.235-29.722-3 56.043c0 4.523 5.004 7.255 8.809 4.81l41.768-29.922c-.37-.454-.811-.868-1.342-1.209z" fill="#9ec8fc"/><path d="m379.38 362.512v-51.043l-3.191-2.051c-3.805-2.446-8.809.286-8.809 4.809v63.547c0 4.523 5.004 7.255 8.809 4.809l49.426-31.773c2.97-1.909 3.41-5.875 1.342-8.41l-38.768 24.922c-3.805 2.445-8.809-.287-8.809-4.81z" fill="#7398d4"/></g><g><path d="m489.5 451h-196c-12.406 0-22.5-10.094-22.5-22.5v-135c0-12.406 10.094-22.5 22.5-22.5h38.881c4.143 0 7.5 3.357 7.5 7.5s-3.357 7.5-7.5 7.5h-38.881c-4.136 0-7.5 3.364-7.5 7.5v112.5h211v-112.5c0-4.136-3.364-7.5-7.5-7.5h-127.119c-4.143 0-7.5-3.357-7.5-7.5s3.357-7.5 7.5-7.5h127.119c12.406 0 22.5 10.094 22.5 22.5v135c0 12.406-10.094 22.5-22.5 22.5zm-203.5-30v7.5c0 4.136 3.364 7.5 7.5 7.5h196c4.136 0 7.5-3.364 7.5-7.5v-7.5zm-67.5 30h-196c-12.407 0-22.5-10.094-22.5-22.5v-135c0-12.406 10.093-22.5 22.5-22.5h196c12.407 0 22.5 10.094 22.5 22.5v48.86c0 4.143-3.358 7.5-7.5 7.5s-7.5-3.357-7.5-7.5v-48.86c0-4.136-3.364-7.5-7.5-7.5h-196c-4.136 0-7.5 3.364-7.5 7.5v112.5h211v-33.64c0-4.143 3.358-7.5 7.5-7.5s7.5 3.357 7.5 7.5v56.14c0 12.406-10.093 22.5-22.5 22.5zm-203.5-30v7.5c0 4.136 3.364 7.5 7.5 7.5h196c4.136 0 7.5-3.364 7.5-7.5v-7.5zm88.88-103.509v57.018l44.348-28.509zm271.001.001v57.016l44.347-28.508zm114.619-76.492h-196c-12.406 0-22.5-10.094-22.5-22.5v-40.9c0-4.143 3.357-7.5 7.5-7.5s7.5 3.357 7.5 7.5v18.4h211v-112.5c0-4.136-3.364-7.5-7.5-7.5h-196c-4.136 0-7.5 3.364-7.5 7.5v64.1c0 4.143-3.357 7.5-7.5 7.5s-7.5-3.357-7.5-7.5v-64.1c0-12.406 10.094-22.5 22.5-22.5h196c12.406 0 22.5 10.094 22.5 22.5v135c0 12.406-10.094 22.5-22.5 22.5zm-203.5-30v7.5c0 4.136 3.364 7.5 7.5 7.5h196c4.136 0 7.5-3.364 7.5-7.5v-7.5zm-67.5 30h-112.12c-4.142 0-7.5-3.357-7.5-7.5s3.358-7.5 7.5-7.5h112.12c4.136 0 7.5-3.364 7.5-7.5v-7.5h-211v7.5c0 4.136 3.364 7.5 7.5 7.5h53.88c4.142 0 7.5 3.357 7.5 7.5s-3.358 7.5-7.5 7.5h-53.88c-12.407 0-22.5-10.094-22.5-22.5v-135c0-12.406 10.093-22.5 22.5-22.5h196c12.407 0 22.5 10.094 22.5 22.5v135c0 12.406-10.093 22.5-22.5 22.5zm-203.5-45h211v-112.5c0-4.136-3.364-7.5-7.5-7.5h-196c-4.136 0-7.5 3.364-7.5 7.5zm88.88-88.509v57.018l44.348-28.509zm276.364 281.402c-4.069 2.615-9.235 2.799-13.48.481s-6.883-6.764-6.883-11.601v-63.547c0-4.837 2.638-9.282 6.883-11.601 4.244-2.318 9.411-2.134 13.48.481l49.427 31.774c3.801 2.443 6.07 6.6 6.07 11.118s-2.27 8.675-6.07 11.118zm-271.001 0c-4.069 2.615-9.235 2.799-13.48.481s-6.883-6.764-6.883-11.601v-63.547c0-4.837 2.638-9.282 6.883-11.601 4.244-2.318 9.411-2.134 13.48.481l49.427 31.774c3.801 2.443 6.07 6.6 6.07 11.118s-2.27 8.675-6.07 11.118zm271.001-210c-4.069 2.615-9.235 2.799-13.48.481s-6.883-6.764-6.883-11.601v-63.547c0-4.837 2.638-9.282 6.883-11.601 4.244-2.318 9.411-2.134 13.48.481l49.427 31.774c3.801 2.443 6.07 6.6 6.07 11.118s-2.27 8.675-6.07 11.118zm-271.001 0c-4.069 2.615-9.235 2.799-13.48.481s-6.883-6.764-6.883-11.601v-63.547c0-4.837 2.638-9.282 6.883-11.601 4.244-2.318 9.411-2.134 13.48.481l49.427 31.774c3.801 2.443 6.07 6.6 6.07 11.118s-2.27 8.675-6.07 11.118zm265.638-71.401v57.016l44.347-28.508z"/></g></g></svg>