<svg id="Layer_1" enable-background="new 0 0 512 512" height="512" viewBox="0 0 512 512" width="512" xmlns="http://www.w3.org/2000/svg"><g><g clip-rule="evenodd" fill-rule="evenodd"><path d="m106 435.873v-333.47c-31.435-.629-63.367-4.352-96.001-13.095l.001 333.469c32.633 8.744 64.565 12.467 96 13.096z" fill="#ff5a58"/><path d="m106 102.403v333.469c50.861 1.018 100.423-6.064 149.554-13.084 50.028-7.149 99.633-14.235 150.447-13.258v-333.469c-50.814-.977-100.418 6.109-150.447 13.258-49.131 7.02-98.693 14.102-149.554 13.084zm85.025 133.764 4.791-22.249 33.539 49.378-15.615-86.722 21.947 11.594 20.313-42.197 20.314 42.197 21.947-11.594-15.615 86.722 33.539-49.378 4.791 22.249 41.612-10.602-17.667 39.139 21.079 8.582-58.22 33.333 3.614 29.518-55.394-8.494-55.393 8.494 3.614-29.518-58.221-33.333 21.079-8.582-17.667-39.139z" fill="#fff"/><g fill="#ff5a58"><path d="m213.739 176.574 15.616 86.722-33.539-49.378-4.791 22.249-41.612-10.602 17.666 39.139-21.079 8.582 58.22 33.333-3.614 29.518 55.394-8.494 55.394 8.494-3.614-29.518 58.22-33.333-21.079-8.582 17.666-39.139-41.612 10.602-4.791-22.249-33.539 49.378 15.616-86.722-21.947 11.594-20.314-42.197-20.314 42.197z"/><path d="m406 76.061v333.469c31.41.604 63.281 4.289 96.001 12.944l-.001-333.469c-32.719-8.655-64.59-12.34-96-12.944z"/></g></g><g><path d="m504.557 79.338c-87.628-23.181-170.386-11.355-250.42.082-77.725 11.105-158.095 22.589-241.549.229-3-.806-6.208-.167-8.676 1.726-2.466 1.892-3.912 4.824-3.912 7.933v333.469c0 4.526 3.04 8.488 7.412 9.659 37.217 9.972 73.5 13.53 108.636 13.53 33.16 0 65.299-3.172 96.195-7.117 5.478-.699 9.353-5.708 8.653-11.186-.7-5.479-5.706-9.361-11.186-8.653-30.155 3.849-61.487 6.942-93.71 6.934v-313.471c48.179-.01 95.026-6.69 140.968-13.255 47.14-6.736 92.772-13.254 139.032-13.301v313.569c-33.494.015-65.943 3.23-97.136 7.231-5.478.703-9.349 5.713-8.646 11.191s5.712 9.348 11.191 8.647c61.879-7.938 128.697-12.754 198.032 5.587 3 .794 6.199.151 8.658-1.744 2.459-1.893 3.899-4.82 3.899-7.924v-333.468c.002-4.539-3.054-8.507-7.441-9.668zm-408.557 346.184c-24.89-1.058-50.264-4.203-76-10.505v-312.908c25.74 5.955 51.054 8.972 76 9.98zm396-15.808c-25.821-5.896-51.18-8.857-75.999-9.845v-313.544c24.954 1.043 50.176 4.201 75.999 10.462z"/><path d="m309.878 346.022c3.098.473 6.232-.528 8.479-2.707 2.247-2.18 3.344-5.286 2.963-8.393l-2.807-22.925 52.455-30.032c3.319-1.9 5.264-5.528 5.009-9.344s-2.664-7.153-6.206-8.596l-11.465-4.668 13.396-29.678c1.581-3.501 1.016-7.599-1.454-10.542-2.471-2.944-6.408-4.211-10.129-3.263l-31.553 8.04-2.605-12.101c-.843-3.913-3.937-6.946-7.865-7.711-3.936-.764-7.936.887-10.184 4.197l-7.08 10.423 7.271-40.376c.678-3.764-.851-7.585-3.938-9.844-3.086-2.257-7.191-2.557-10.574-.771l-12.768 6.745-15.812-32.844c-1.666-3.461-5.169-5.662-9.01-5.662-3.842 0-7.344 2.201-9.01 5.663l-15.811 32.843-12.769-6.745c-3.381-1.786-7.488-1.488-10.574.771-3.087 2.258-4.616 6.08-3.938 9.844l7.27 40.375-7.079-10.422c-2.249-3.311-6.256-4.961-10.183-4.197-3.929.765-7.023 3.798-7.865 7.71l-2.606 12.102-31.553-8.04c-3.722-.949-7.66.319-10.13 3.263-2.469 2.943-3.035 7.041-1.454 10.542l13.396 29.678-11.465 4.668c-3.542 1.442-5.952 4.779-6.207 8.596-.254 3.816 1.69 7.444 5.009 9.344l52.456 30.032-2.807 22.925c-.38 3.107.716 6.213 2.963 8.393 1.879 1.823 4.383 2.822 6.962 2.822.504 0 1.011-.038 1.516-.115l43.878-6.729v26.677c0 5.523 4.477 10 10 10s10-4.477 10-10v-26.677zm-100.689-48.081-40.406-23.133 2.067-.842c2.516-1.024 4.507-3.029 5.516-5.552 1.008-2.523.946-5.348-.172-7.824l-9.121-20.206 21.482 5.474c2.633.671 5.425.241 7.735-1.189 2.142-1.327 3.698-3.409 4.369-5.822l20.423 30.069c2.654 3.907 7.678 5.423 12.05 3.64 4.373-1.784 6.901-6.383 6.064-11.031l-11.978-66.52 3.797 2.006c2.402 1.27 5.217 1.505 7.798.656 2.581-.85 4.705-2.713 5.883-5.161l11.304-23.481 11.303 23.48c1.179 2.448 3.303 4.311 5.884 5.161 2.579.849 5.396.613 7.798-.656l3.796-2.005-11.978 66.52c-.837 4.647 1.691 9.247 6.063 11.031 4.375 1.786 9.398.266 12.051-3.64l20.423-30.068c.671 2.414 2.227 4.495 4.368 5.822 2.311 1.432 5.107 1.861 7.735 1.189l21.482-5.474-9.12 20.206c-1.118 2.477-1.18 5.301-.172 7.824s2.999 4.527 5.515 5.552l2.067.842-40.405 23.133c-3.493 2-5.446 5.898-4.957 9.894l2.01 16.418-42.348-6.494c-1.006-.154-2.027-.154-3.032 0l-42.348 6.494 2.01-16.418c.49-3.997-1.463-7.896-4.956-9.895z"/><path d="m255.561 412.788h-.007c-5.523 0-9.996 4.477-9.996 10s4.48 10 10.003 10c5.522 0 10-4.477 10-10s-4.478-10-10-10z"/></g></g></svg>