<svg id="Layer_1" enable-background="new 0 0 1550 1550" height="512" viewBox="0 0 1550 1550" width="512" xmlns="http://www.w3.org/2000/svg"><g><g><g id="XMLID_3_"><path d="m983.4 797.3-208.4-208.5-350.1 350.1s44 .1 110 .2v259.1h180.5v-174.7h117v174.7h180.5v-258.8c67.3-.1 112.3-.2 112.3-.5zm535.6-396.3v985h-1488v-985z" fill="#f8f6f7"/><path d="m31 164h1488v237h-1488z" fill="#e96262"/><path d="m983.4 797.3 141.6 141.6c0 .3-45.1.4-112.3.5v258.8h-180.5v-174.7h-117v174.7h-180.3v-259.1c-66-.1-110-.2-110-.2l350.1-350.1z" fill="#a4d18f"/></g></g><g><g><g><path d="m1519 422c-11.6 0-21-9.4-21-21v-216h-1446v216c0 11.6-9.4 21-21 21s-21-9.4-21-21v-237c0-11.6 9.4-21 21-21h1488c11.6 0 21 9.4 21 21v237c0 11.6-9.4 21-21 21z"/></g><g><path d="m1519 1407h-1488c-11.6 0-21-9.4-21-21v-985c0-11.6 9.4-21 21-21h1488c11.6 0 21 9.4 21 21v985c0 11.6-9.4 21-21 21zm-1467-42h1446v-943h-1446z"/></g><g><g><path d="m222.2 317.5h-8.4c-17 0-30.8-13.8-30.8-30.8v-8.4c0-17 13.8-30.8 30.8-30.8h8.4c17 0 30.8 13.8 30.8 30.8v8.4c0 17-13.8 30.8-30.8 30.8z"/></g><g><path d="m360.2 317.5h-8.4c-17 0-30.8-13.8-30.8-30.8v-8.4c0-17 13.8-30.8 30.8-30.8h8.4c17 0 30.8 13.8 30.8 30.8v8.4c0 17-13.8 30.8-30.8 30.8z"/></g><g><path d="m498.2 317.5h-8.4c-17 0-30.8-13.8-30.8-30.8v-8.4c0-17 13.8-30.8 30.8-30.8h8.4c17 0 30.8 13.8 30.8 30.8v8.4c0 17-13.8 30.8-30.8 30.8z"/></g></g><g><g><g><path d="m1012.8 1219.2h-180.5c-11.6 0-21-9.4-21-21v-153.7h-75v153.7c0 11.6-9.4 21-21 21h-180.4c-11.6 0-21-9.4-21-21v-238.2c-54.2-.1-89-.1-89-.1-8.5 0-16.1-5.1-19.4-13-3.2-7.8-1.4-16.9 4.6-22.9l350.1-350c8.2-8.2 21.5-8.2 29.7 0l350.1 350.1c6 6 7.8 15 4.6 22.9-1.2 2.9-6.1 12.4-18.9 13-.5 0-1.2 0-2.1.1-1.4 0-3.6.1-6.3.1-5.2.1-12.9.1-23 .1-14.8.1-35.1.1-60.4.1v237.8c-.1 11.6-9.5 21-21.1 21zm-159.5-42h138.5v-237.8c0-11.6 9.4-21 21-21 26.4 0 46.6-.1 62-.1l-299.8-299.8-299.5 299.5c16.6 0 36.7.1 59.4.1 11.6 0 21 9.4 21 21v238.2h138.5v-153.7c0-11.6 9.4-21 21-21h117c11.6 0 21 9.4 21 21z"/></g><g><path d="m983.5 818.3c-11.6 0-21-9.4-21-21v-108.5c0-11.6 9.4-21 21-21s21 9.4 21 21v108.4c0 11.7-9.4 21.1-21 21.1z"/></g></g></g></g></g></g></svg>