<svg id="Icons" height="512" viewBox="0 0 60 60" width="512" xmlns="http://www.w3.org/2000/svg"><path d="m40.609 21.389a.5.5 0 0 1 -.31-.892l1.686-1.34-3.485 2.011a.5.5 0 0 1 -.553-.831l3.37-2.561-4.691 2.708a.5.5 0 0 1 -.534-.843l1.345-.931-1.88 1.09a.5.5 0 0 1 -.541-.839l3.907-2.795-4.532 2.616a.5.5 0 0 1 -.548-.834l5.75-4.273-6.293 3.625a.5.5 0 0 1 -.55-.833l5.9-4.412-6.08 3.509a.5.5 0 0 1 -.544-.837l4.391-3.2-4.076 2.354a.5.5 0 0 1 -.541-.839l2.624-1.883-1.994 1.157a.5.5 0 0 1 -.557-.827l2.9-2.253-1.763 1.018a.5.5 0 0 1 -.581-.808l1.929-1.7a.5.5 0 0 1 -.111-.913l3.346-1.933a.5.5 0 0 1 .581.808l-1.352 1.192 3.788-2.187a.5.5 0 0 1 .557.827l-2.9 2.252 4.433-2.56a.5.5 0 0 1 .541.839l-2.625 1.883 3.484-2.013a.5.5 0 0 1 .543.837l-4.392 3.2 5.179-2.989a.5.5 0 0 1 .549.833l-5.9 4.412 6.5-3.753a.5.5 0 0 1 .548.834l-5.75 4.273 5.933-3.425a.5.5 0 0 1 .541.839l-3.908 2.8 3.655-2.11a.5.5 0 0 1 .534.844l-1.341.927.872-.5a.5.5 0 0 1 .553.831l-3.374 2.564 2.493-1.439a.5.5 0 0 1 .56.824l-1.683 1.337.074-.042a.5.5 0 1 1 .5.865l-5.932 3.425a.493.493 0 0 1 -.245.061z" fill="#f0f2f5"/><path d="m48.414 59.446a.5.5 0 0 1 -.3-.9l4.236-3.216-6.666 3.849a.5.5 0 0 1 -.535-.844l3.583-2.483-5.176 2.988a.5.5 0 0 1 -.544-.84l7.342-5.256-9.269 5.356a.5.5 0 0 1 -.524-.851l1.726-1.134-2.32 1.339a.5.5 0 0 1 -.534-.844l4.333-2.994-4.486 2.59a.5.5 0 0 1 -.674-.167.5.5 0 0 1 .143-.68l1.566-1.059-1.035.6a.5.5 0 0 1 -.57-.817l4.462-3.724-3.892 2.241a.5.5 0 0 1 -.569-.818l1.678-1.395-1.109.639a.5.5 0 0 1 -.614-.775l1.026-1.089-.412.237a.5.5 0 0 1 -.734-.557l.276-1.068a.487.487 0 0 1 -.224-.205.5.5 0 0 1 .182-.682l.5-.289a.493.493 0 0 1 .553.035.5.5 0 0 1 .182.522l-.2.783 2.33-1.344a.5.5 0 0 1 .614.775l-1.029 1.087 3.237-1.868a.5.5 0 0 1 .569.817l-1.679 1.4 3.843-2.221a.5.5 0 0 1 .571.816l-4.463 3.726 7.877-4.548a.5.5 0 0 1 .531.847l-1.559 1.057 3.306-1.908a.5.5 0 0 1 .534.844l-4.342 3 6.665-3.848a.5.5 0 0 1 .525.851l-1.717 1.128 3.094-1.786a.5.5 0 0 1 .541.839l-7.345 5.256 6.805-3.927a.5.5 0 0 1 .535.843l-3.582 2.483 3.045-1.757a.5.5 0 0 1 .552.831l-4.234 3.215 3.683-2.126a.5.5 0 0 1 .551.832l-1.536 1.16.985-.568a.5.5 0 0 1 .649.734l-1.39 1.838.486-.279a.5.5 0 0 1 .5.865l-2.62 1.513a.5.5 0 0 1 -.65-.735l1.39-1.838-5.86 3.383a.5.5 0 0 1 -.552-.832l1.536-1.16-3.547 2.048a.491.491 0 0 1 -.25.065z" fill="#346d92"/><path d="m47.214 50.4a.5.5 0 0 1 -.287-.909l2.492-1.749-4.14 2.39a.5.5 0 0 1 -.54-.84l5.378-3.828-7.295 4.211a.5.5 0 0 1 -.528-.849l3.737-2.5-4.859 2.805a.5.5 0 0 1 -.526-.85l2.3-1.521-2.96 1.709a.5.5 0 0 1 -.532-.846l3.73-2.545-3.904 2.256a.5.5 0 0 1 -.532-.845l2.306-1.581-1.774 1.024a.5.5 0 0 1 -.549-.834l3.169-2.357-2.62 1.511a.5.5 0 0 1 -.577-.811l2.724-2.355-2.147 1.239a.5.5 0 0 1 -.605-.784l1.212-1.226-.607.35a.5.5 0 0 1 -.737-.544l.3-1.338a.491.491 0 0 1 -.249-.215.5.5 0 0 1 .182-.682l.5-.289a.5.5 0 0 1 .738.544l-.248 1.087 2.834-1.636a.5.5 0 0 1 .606.784l-1.206 1.224 3.486-2.013a.5.5 0 0 1 .577.81l-2.723 2.356 5.492-3.171a.5.5 0 0 1 .549.834l-3.17 2.359 5.539-3.2a.5.5 0 0 1 .532.845l-2.3 1.58 4.2-2.427a.5.5 0 0 1 .532.846l-3.732 2.547 5.883-3.4a.5.5 0 0 1 .526.85l-2.3 1.52 3.627-2.093a.5.5 0 0 1 .528.848l-3.746 2.509 3.217-1.856a.5.5 0 0 1 .54.84l-5.366 3.816 4.83-2.789a.5.5 0 0 1 .537.842l-2.492 1.749 1.956-1.129a.5.5 0 0 1 .574.813l-3.78 3.216 3.206-1.851a.5.5 0 0 1 .624.765l-1.446 1.638.7-.4a.5.5 0 0 1 .5.865l-3.38 1.944a.5.5 0 0 1 -.62-.763l1.45-1.632-5.294 3.056a.5.5 0 0 1 -.574-.813l3.78-3.216-6.994 4.038a.491.491 0 0 1 -.254.067z" fill="#295474"/><path d="m48.9 41.466a.5.5 0 0 1 -.3-.9l4.178-3.227-6.727 3.884a.5.5 0 0 1 -.545-.836l5.716-4.187-7.932 4.581a.5.5 0 0 1 -.534-.843l4.811-3.325-6.215 3.587a.5.5 0 0 1 -.534-.845l3.824-2.632-4.7 2.712a.5.5 0 0 1 -.542-.835l3.929-2.784-4.049 2.334a.5.5 0 0 1 -.562-.823l4.459-3.561-3.9 2.249a.5.5 0 0 1 -.582-.806l2.598-2.309-2.013 1.16a.5.5 0 0 1 -.575-.813l.344-.294a.509.509 0 0 1 -.312-.1.5.5 0 0 1 -.2-.506l.322-1.562a.5.5 0 0 1 -.083-.9l.5-.289a.5.5 0 0 1 .74.534l-.276 1.332 3.242-1.872a.5.5 0 0 1 .575.812l-.1.091 1.569-.906a.5.5 0 0 1 .582.806l-2.595 2.311 5.409-3.122a.5.5 0 0 1 .562.823l-4.458 3.562 7.6-4.391a.5.5 0 0 1 .539.841l-3.926 2.783 6.29-3.631a.5.5 0 0 1 .533.845l-3.814 2.627 6.022-3.477a.5.5 0 0 1 .534.844l-4.819 3.329 5.236-3.022a.5.5 0 0 1 .545.836l-5.719 4.184 5.174-2.986a.5.5 0 0 1 .555.828l-4.176 3.235 3.627-2.094a.5.5 0 0 1 .551.831l-1.175.89.624-.359a.5.5 0 0 1 .639.746l-1.193 1.481.3-.172a.5.5 0 0 1 .5.865l-2.62 1.513a.5.5 0 0 1 -.64-.746l1.187-1.481-5.23 3.02a.5.5 0 0 1 -.552-.831l1.179-.894-3.149 1.819a.493.493 0 0 1 -.248.066z" fill="#346d92"/><path d="m47.582 33.413a.5.5 0 0 1 -.348-.859l2.837-2.748-5.584 3.223a.5.5 0 0 1 -.58-.808l2.474-2.173-4.253 2.452a.5.5 0 0 1 -.593-.8l2.145-2.018-3.419 1.978a.5.5 0 0 1 -.684-.681l.975-1.7-1.019.588a.5.5 0 0 1 -.5-.865l2.625-1.516a.5.5 0 0 1 .6.078.5.5 0 0 1 .08.6l-.975 1.7 5.537-3.192a.5.5 0 0 1 .593.8l-2.145 2.019 4.9-2.83a.5.5 0 0 1 .58.809l-2.468 2.169 4.716-2.723a.5.5 0 0 1 .6.792l-2.838 2.749 5.09-2.938a.5.5 0 0 1 .582.806l-1.894 1.675 3.013-1.739a.5.5 0 0 1 .579.809l-.651.568.951-.549a.5.5 0 0 1 .5.865l-5.408 3.128a.5.5 0 0 1 -.579-.81l.653-.569-2.834 1.636a.5.5 0 0 1 -.582-.807l1.891-1.676-4.312 2.49a.489.489 0 0 1 -.255.067z" fill="#4d88a9"/><path d="m9.114 59.4a.5.5 0 0 1 -.3-.9l5.9-4.55-8.672 5.005a.5.5 0 0 1 -.529-.848l3.087-2.078-4.349 2.512a.5.5 0 0 1 -.531-.847l5-3.392-6.17 3.561a.5.5 0 0 1 -.537-.842l5.555-3.894-6.168 3.562a.5.5 0 0 1 -.546-.835l5.224-3.834-4.8 2.769a.5.5 0 0 1 -.535-.844l.661-.458-.126.073a.5.5 0 0 1 -.57-.818l2.841-2.363-2.269 1.31a.5.5 0 0 1 -.629-.758l1.723-2-1.094.629a.5.5 0 0 1 -.736-.549l.294-1.231a.5.5 0 0 1 -.058-.894l.5-.289a.5.5 0 0 1 .737.549l-.232.967 2.636-1.521a.5.5 0 0 1 .629.759l-1.723 2 4.793-2.765a.5.5 0 0 1 .57.817l-2.84 2.364 5.517-3.186a.5.5 0 0 1 .535.844l-.667.462 2.265-1.309a.5.5 0 0 1 .546.836l-5.229 3.837 8.1-4.678a.5.5 0 0 1 .537.842l-5.554 3.893 8.211-4.74a.5.5 0 0 1 .532.847l-5 3.4 5.076-2.931a.5.5 0 0 1 .529.848l-3.081 2.068 2.554-1.474a.5.5 0 0 1 .555.829l-5.906 4.551 5.352-3.09a.5.5 0 0 1 .578.81l-3.955 3.448 3.378-1.95a.5.5 0 0 1 .633.754l-1.367 1.634.536-.31a.5.5 0 1 1 .5.865l-2.981 1.721a.5.5 0 0 1 -.634-.754l1.367-1.634-5.4 3.116a.5.5 0 0 1 -.578-.809l3.955-3.448-7.39 4.268a.493.493 0 0 1 -.25.073z" fill="#346d92"/><path d="m10.91 50.467a.5.5 0 0 1 -.3-.9l3.072-2.279-5.192 3a.5.5 0 0 1 -.532-.845l2.058-1.411-3.48 2.009a.5.5 0 0 1 -.532-.845l4-2.74-5.468 3.151a.5.5 0 0 1 -.53-.846l4.92-3.33-6.148 3.548a.5.5 0 0 1 -.541-.838l6.439-4.615-7.266 4.195a.5.5 0 0 1 -.535-.844l3.5-2.432-3.1 1.788a.5.5 0 0 1 -.56-.824l4.507-3.58-3.942 2.278a.5.5 0 0 1 -.557-.827l1.588-1.239-1.031.6a.5.5 0 0 1 -.6-.786l1.491-1.49-.888.512a.5.5 0 0 1 -.739-.534l.321-1.549a.49.49 0 0 1 -.265-.226.5.5 0 0 1 .182-.682l.5-.289a.5.5 0 0 1 .74.534l-.274 1.317 3.217-1.857a.5.5 0 0 1 .6.786l-1.49 1.491 3.951-2.281a.5.5 0 0 1 .558.827l-1.584 1.239 3.586-2.07a.5.5 0 0 1 .561.824l-4.507 3.58 7.638-4.41a.5.5 0 0 1 .536.844l-3.514 2.434 5.686-3.282a.5.5 0 0 1 .541.839l-6.436 4.612 9.453-5.457a.5.5 0 0 1 .53.847l-4.921 3.331 4.566-2.636a.5.5 0 0 1 .532.845l-3.994 2.738 3.462-2a.5.5 0 0 1 .532.845l-2.057 1.413 1.528-.882a.5.5 0 0 1 .548.834l-3.07 2.279 2.522-1.456a.5.5 0 0 1 .553.83l-1.31 1 .758-.438a.5.5 0 0 1 .568.819l-.387.319a.5.5 0 0 1 .319.928l-4.823 2.787a.5.5 0 0 1 -.568-.819l.214-.176-2.3 1.328a.5.5 0 0 1 -.554-.83l1.309-1-3.341 1.927a.493.493 0 0 1 -.25.067z" fill="#295474"/><path d="m11.729 41.44a.5.5 0 0 1 -.307-.894l3.549-2.765-6.108 3.526a.5.5 0 0 1 -.55-.833l5.667-4.246-8.118 4.686a.5.5 0 0 1 -.526-.85l2-1.329-3.115 1.8a.5.5 0 0 1 -.526-.85l1.1-.727-1.866 1.08a.5.5 0 0 1 -.537-.842l4.319-3.023-5.118 2.954a.5.5 0 0 1 -.547-.835l4.554-3.354-4.32 2.494a.5.5 0 0 1 -.558-.832l3.355-2.633-2.8 1.615a.5.5 0 0 1 -.6-.792l2.39-2.316-1.787 1.041a.5.5 0 0 1 -.62-.77l.619-.68a.5.5 0 0 1 -.726-.583l.228-.73a.49.49 0 0 1 -.181-.184.5.5 0 0 1 .182-.682l.5-.289a.5.5 0 0 1 .728.582l-.119.379 1.672-.965a.5.5 0 0 1 .62.769l-.62.681 2.516-1.453a.5.5 0 0 1 .6.792l-2.392 2.318 5.391-3.112a.5.5 0 0 1 .558.826l-3.358 2.632 6-3.467a.5.5 0 0 1 .547.835l-4.549 3.354 7.264-4.194a.5.5 0 0 1 .537.842l-4.32 3.024 6.7-3.87a.5.5 0 0 1 .525.851l-1.1.725 2.238-1.291a.5.5 0 0 1 .526.85l-2 1.33 1.479-.853a.5.5 0 0 1 .55.833l-5.675 4.247 5.119-2.955a.5.5 0 0 1 .557.827l-3.545 2.766 2.991-1.726a.5.5 0 0 1 .559.825l-1.082.852.524-.3a.5.5 0 0 1 .6.787l-.6.6a.5.5 0 0 1 .3.929l-3 1.73a.5.5 0 0 1 -.6-.787l.479-.478-3.241 1.868a.5.5 0 0 1 -.559-.825l1.081-.851-3.2 1.849a.491.491 0 0 1 -.254.067z" fill="#346d92"/><path d="m9.473 33.408a.5.5 0 0 1 -.326-.88l2.293-1.96-4.385 2.532a.5.5 0 0 1 -.582-.807l2.565-2.273-4.484 2.59a.5.5 0 0 1 -.566-.82l1.449-1.179-2.486 1.435a.5.5 0 0 1 -.6-.788l1.605-1.591-2.4 1.384a.5.5 0 0 1 -.611-.78l.325-.336a.5.5 0 0 1 -.237-.935l2.625-1.516a.5.5 0 0 1 .611.78l-.143.147 2.674-1.543a.5.5 0 0 1 .6.788l-1.6 1.592 4.565-2.635a.5.5 0 0 1 .566.821l-1.45 1.176 3.344-1.929a.5.5 0 0 1 .582.806l-2.564 2.272 4.8-2.772a.5.5 0 0 1 .575.813l-2.293 1.96 3.929-2.269a.5.5 0 0 1 .618.772l-2.332 2.524 3.887-2.244a.5.5 0 0 1 .66.72l-.88 1.252.66-.381a.5.5 0 0 1 .5.865l-2.622 1.514a.5.5 0 0 1 -.659-.72l.879-1.251-4.779 2.758a.5.5 0 0 1 -.617-.772l2.331-2.523-5.777 3.336a.491.491 0 0 1 -.25.067z" fill="#4d88a9"/><path d="m23.473 43.5a.5.5 0 0 1 -.25-.933l9.377-5.419a.5.5 0 0 1 .555.83l-1.068.823.628-.363a.5.5 0 0 1 .637.75l-1.628 1.993.992-.573a.5.5 0 0 1 .61.086.5.5 0 0 1 .064.613l-.342.544a.5.5 0 0 1 .082.9l-1.126.649a.5.5 0 0 1 -.674-.7l.141-.224-1.61.929a.5.5 0 0 1 -.637-.749l1.627-1.992-4.771 2.754a.5.5 0 0 1 -.555-.829l1.069-.823-2.876 1.66a.494.494 0 0 1 -.245.074z" fill="#31b791"/><path d="m21.318 46.247a.5.5 0 0 1 -.307-.893l5.406-4.227-6.451 3.725a.5.5 0 0 1 -.561-.826l3.959-3.126-4.8 2.771a.5.5 0 0 1 -.549-.833l1.56-1.168-2.005 1.155a.5.5 0 0 1 -.548-.834l.28-.208-.573.33a.5.5 0 0 1 -.583-.8l2.947-2.649-3.712 2.136a.5.5 0 0 1 -.581-.8l4.983-4.5a.6.6 0 0 1 -.039-.059.5.5 0 0 1 .183-.682l1.927-1.113a.5.5 0 0 1 .585.8l-3.456 3.119 3.749-2.165a.5.5 0 0 1 .584.8l-2.948 2.649 3.917-2.26a.5.5 0 0 1 .548.834l-.275.2 1.8-1.04a.5.5 0 0 1 .55.833l-1.56 1.184 3.466-2a.5.5 0 0 1 .56.825l-3.959 3.129 6.687-3.86a.5.5 0 0 1 .557.827l-9.195 7.187a.5.5 0 0 1 -.242.521l-1.654.954a.491.491 0 0 1 -.25.064z" fill="#31b791"/><path d="m37.032 46.5a.5.5 0 0 1 -.424-.765l.356-.569a.5.5 0 0 1 -.078-.9l1.114-.64a.5.5 0 0 1 .674.7l-.151.243.494-.285a.5.5 0 0 1 .5.865l-2.232 1.29a.5.5 0 0 1 -.253.061z" fill="#31b791"/><path d="m37.493 56.258a.5.5 0 0 1 -.316-.888l2.623-2.137-2.529 1.457a.5.5 0 0 1 -.584-.8l3.026-2.73-3.89 2.24a.5.5 0 0 1 -.581-.807l2.834-2.5-5.731 3.307a.5.5 0 0 1 -.566-.821l3.734-3.027-6.667 3.848a.5.5 0 0 1 -.575-.812l2.869-2.459-3.858 2.226a.5.5 0 0 1 -.6-.788l2.2-2.178-1.6.924a.5.5 0 0 1 -.71-.628l.646-1.516a.5.5 0 0 1 -.351-.924l1.133-.645a.5.5 0 0 1 .71.629l-.631 1.471 3.668-2.118a.5.5 0 0 1 .6.788l-2.2 2.18 5.163-2.98a.5.5 0 0 1 .575.813l-2.867 2.457 7.471-4.314a.5.5 0 0 1 .566.822l-3.735 3.028 4.588-2.649a.5.5 0 0 1 .581.808l-2.835 2.5 3.665-2.115a.5.5 0 0 1 .585.8l-3.026 2.729 3.793-2.189a.5.5 0 0 1 .566.82l-3.7 3.02a.5.5 0 0 1 .028.88l-3.817 2.2a.493.493 0 0 1 -.255.078z" fill="#31b791"/><g fill="#262626"><path d="m30.845 43.287c1.146 0 2.8-.1 2.879-1.564.07-1.3 0-2.617 0-3.917-.119-1.031-1.015-1.093-1.839-1.093h-8.157c.018-.785.253-2.074-.35-2.645a1.712 1.712 0 0 0 -1.654-.279v-3.983c-.063-1.037-1.33-1.617-2.156-1.947a18.715 18.715 0 0 0 -5.231-1.105c-3.819-.348-8.222-.288-11.809 1.255-.8.346-2 .913-2.223 1.866a1.164 1.164 0 0 0 -.029.317v.01a.1.1 0 0 0 0 .017v7.791c0 .015-.011.027-.011.043s.009.047.011.071v12.838c0 1.625-.037 3.254 0 4.878.036 1.641 1.85 2.209 3.214 2.6a28.286 28.286 0 0 0 11.679.521 17.789 17.789 0 0 0 4.315-1.106c.771-.324 1.906-.828 2.186-1.707a5.162 5.162 0 0 0 .054-1.495v-8.384a2.473 2.473 0 0 0 1.372-.445c.794-.543.7-1.62.645-2.537zm-10.569 3.907c-.078 1.263-2.087 1.721-3.033 1.948a25.934 25.934 0 0 1 -6.881.568 24.92 24.92 0 0 1 -4.629-.532v-8.052a30.042 30.042 0 0 0 9.239.145c.133.113.269.222.394.327l4.883 4.134.027.019zm-18.552-15.377.033.018a10.574 10.574 0 0 0 2.51.889v6.876a9.645 9.645 0 0 1 -1.194-.441c-.45-.206-1.312-.617-1.338-1.213 0-.013-.009-.02-.011-.033zm0 8.142a10.441 10.441 0 0 0 2.543.87v7.944h-.012c-.888-.3-2.461-.83-2.531-1.964zm12.657-.249a1.029 1.029 0 0 0 -.1.564 29.119 29.119 0 0 1 -8.01-.2c-.181-.031-.362-.068-.543-.1v-6.974c.311.048.621.1.926.134a32.717 32.717 0 0 0 6.427.164 20.585 20.585 0 0 0 6.18-1.226 9.627 9.627 0 0 0 1.01-.466v2.963c-1.527 1.228-3 2.538-4.49 3.8-.422.368-1.158.807-1.4 1.341zm-11.192-11.203c2.951-1.238 6.579-1.261 9.715-1.049a18.981 18.981 0 0 1 5.287.99c.766.284 1.981.754 2.075 1.7-.093.83-1.091 1.216-1.773 1.466a17.666 17.666 0 0 1 -4.493.886 26.824 26.824 0 0 1 -8.329-.407.737.737 0 0 0 -.777-.2c-.326-.093-.652-.189-.968-.3-.714-.257-1.916-.675-2.152-1.507s.803-1.322 1.415-1.579zm12.121 29.965c-3.734.5-8.147.5-11.7-.942-.8-.325-1.759-.79-1.89-1.726a6.168 6.168 0 0 1 0-.827v-6.167a11.548 11.548 0 0 0 1.856.647c.225.063.459.1.687.154v4.446c0 .749 1.466.526 1.466-.114v-4.02a30.152 30.152 0 0 0 5.905.33 24.457 24.457 0 0 0 7.155-1.153 11.167 11.167 0 0 0 1.487-.609v7.125c0 2.309-3.176 2.617-4.966 2.856zm6.89-12.972c-.12.344-.183.134-.385-.084a6.559 6.559 0 0 0 -.584-.493l-4.211-3.569a7.837 7.837 0 0 1 -1.02-.873.4.4 0 0 0 -.112-.16.943.943 0 0 1 -.066-.094c-.346-.728.328-1.172.8-1.569l4.2-3.553c.244-.207.5-.408.738-.624a.48.48 0 0 0 .118-.1l.01-.008a.6.6 0 0 1 .331.183c.533.55.265 1.944.265 2.639 0 .083.224.093.252.093h7.937c.786 0 1.686-.165 1.811.907v3.584a3.608 3.608 0 0 1 0 .416 3.066 3.066 0 0 0 .011.524 5.427 5.427 0 0 1 -1.389-.005h-7.434c-.25 0-1.2.115-1.2.481a7.468 7.468 0 0 1 -.072 2.305z"/><path d="m59.724 29.97c0-.012.007-.022.007-.034s-.006-.02-.007-.033v-.1c-.063-1.042-1.275-1.637-2.106-1.99a17.8 17.8 0 0 0 -5.131-1.153c-3.871-.4-8.355-.342-11.992 1.223-.832.358-2 .967-2.2 1.955a1.27 1.27 0 0 0 -.02.371v13.319a1.9 1.9 0 0 0 -1.289.361c-.842.585-.778 1.658-.733 2.616h-4.806c-1.479 0-4.924-.614-5.176 1.56 0 1.283-.035 2.572 0 3.855.042 1.523 1.316 1.575 2.5 1.575h7.488a3.976 3.976 0 0 0 .261 2.355 1.692 1.692 0 0 0 1.869.564c.414 1.271 1.989 1.775 3.255 2.137a27.523 27.523 0 0 0 9.1.784c2.52-.151 5.476-.454 7.685-1.813a2.409 2.409 0 0 0 1.295-2.383v-8.211-.012-.006zm-14.146 19.374a3.728 3.728 0 0 0 -.893-.956l-.957-.81v-6.591a30.191 30.191 0 0 0 5.54.378 24.636 24.636 0 0 0 7.32-1.067 10.972 10.972 0 0 0 1.688-.691v7.472.005c-.026.589-.562.92-1.04 1.161a11.159 11.159 0 0 1 -3.024.907 28.585 28.585 0 0 1 -8.634.192zm-5.854-17.473.05.028a12.3 12.3 0 0 0 2.5.955v6.866c-.924-.288-2.479-.8-2.548-1.914zm18.552 6.246c-.087 1.176-1.9 1.6-2.8 1.832a25.154 25.154 0 0 1 -6.744.676 25.436 25.436 0 0 1 -5-.526v-6.918a31.219 31.219 0 0 0 7.391.243 20.3 20.3 0 0 0 6.177-1.224 8.38 8.38 0 0 0 .977-.463zm-17.054-9.486c2.958-1.219 6.574-1.273 9.711-1.062a19.962 19.962 0 0 1 5.189.926c.744.258 2.006.7 2.135 1.619-.094.79-1.2 1.167-1.834 1.393a18.214 18.214 0 0 1 -4.462.869 24.9 24.9 0 0 1 -9.967-.833c-.68-.228-2.006-.642-2.225-1.458-.21-.785.898-1.226 1.453-1.454zm-1.5 11.216a11.045 11.045 0 0 0 1.873.674c.222.062.451.1.675.154v5.67l-2.5-2.117c-.015-.013-.031-.023-.046-.035zm-1.99 13.088c0-.368-.357-.43-.658-.43h-7.423a7.193 7.193 0 0 1 -1.392 0c-.467-.1-.525-.5-.525-.934v-3.636c.08-.692.9-.44 1.44-.44h7.755c.263 0 .8-.235.8-.56a11.061 11.061 0 0 1 0-1.96c.087-.458.262-.471.571-.234.2.154.39.33.583.494l4.117 3.479a7.832 7.832 0 0 1 1.066.9c.546.678-.135 1.06-.584 1.439l-.861.729a.711.711 0 0 0 -.1.053.95.95 0 0 0 -.174.178l-2.923 2.477c-.288.243-.862.964-1.263.936-.707-.05-.427-2.012-.427-2.491zm20.544 2.725c0 1.5-1.5 1.911-2.779 2.251a26.524 26.524 0 0 1 -10.84.341c-1.6-.264-4.655-.669-4.908-2.635q1.275-1.035 2.518-2.112v.553a.4.4 0 0 0 .173.356.8.8 0 0 0 .493.108 1.054 1.054 0 0 0 .545-.2.564.564 0 0 0 .255-.381v-1.7c.136-.115.27-.233.406-.348a5.385 5.385 0 0 0 1.461-1.408 1.371 1.371 0 0 0 .07-.2 30.274 30.274 0 0 0 9.181-.435 11.852 11.852 0 0 0 3.429-1.193v7.003z"/><path d="m32.459 17.4a7.955 7.955 0 0 0 1.173 1.478.5.5 0 0 0 .284.283 8.87 8.87 0 0 0 14.808-6.17c0-.011.012-.021.012-.033s-.008-.024-.009-.039a8.419 8.419 0 0 0 -5.627-7.891 8.55 8.55 0 0 0 -2.37-.453v-3.3h.792a2.091 2.091 0 0 0 1.027-.275c.058-.034.2-.109.175-.194s-.195-.081-.249-.081h-1.8a.626.626 0 0 0 -.607-.244 1.3 1.3 0 0 0 -.6.244h-.995a2.091 2.091 0 0 0 -1.022.275c-.058.034-.2.109-.175.194s.195.081.249.081h1.742v3.325a9.183 9.183 0 0 0 -5.3 2.409.673.673 0 0 0 -.311.277c-.006.012-.005.028-.011.042-.1.108-.22.2-.318.315a8.429 8.429 0 0 0 -2.011 5.286l-.005.006a.354.354 0 0 0 0 .314 8.225 8.225 0 0 0 1.148 4.151zm1.241-8.276a7.5 7.5 0 0 1 .581-.868l.629.629.176.176a.622.622 0 0 0 .4.173 1.152 1.152 0 0 0 .57-.106.772.772 0 0 0 .379-.317.311.311 0 0 0 -.017-.357l-1.2-1.2a7 7 0 0 1 4.058-1.754v1.7c0 .088.221.1.255.105a2.067 2.067 0 0 0 1.025-.274c.078-.055.168-.113.168-.219v-1.271c.2.026.391.036.586.079a7.423 7.423 0 0 1 3.543 1.929l-1.089 1.089-.177.176c-.056.056-.1.128-.027.189a.638.638 0 0 0 .368.041 2.186 2.186 0 0 0 .564-.127 1.131 1.131 0 0 0 .408-.217l.532-.532a7.85 7.85 0 0 1 1.779 4.27h-1.155a.979.979 0 0 0 -.544.2.622.622 0 0 0 -.248.406c-.013.385.358.515.68.515h1.288a7.957 7.957 0 0 1 -1.539 4.175l-.6-.6-.176-.176a.593.593 0 0 0 -.391-.127 1.386 1.386 0 0 0 -.568.113.838.838 0 0 0 -.389.282.231.231 0 0 0 0 .3l1.216 1.216a6.82 6.82 0 0 1 -2.217 1.381 6.535 6.535 0 0 1 -1.845.379v-1.7c0-.082-.224-.089-.251-.09a2.258 2.258 0 0 0 -1.025.274c-.074.049-.172.1-.172.2v1.275a7.584 7.584 0 0 1 -4.012-1.889l.929-.928.176-.177a.49.49 0 0 0 .113-.426.5.5 0 0 0 -.312-.314.916.916 0 0 0 -.553-.016l-.187.071a.837.837 0 0 0 -.284.22l-.7.7c-.016-.019-.036-.035-.051-.055a7.731 7.731 0 0 1 -1.623-4.171h.972a1.288 1.288 0 0 0 .571-.1.8.8 0 0 0 .377-.324.333.333 0 0 0 -.021-.369.567.567 0 0 0 -.4-.181h-1.5a7.562 7.562 0 0 1 .93-3.378z"/><path d="m40.326 14.279c.222.221.707.112.956 0 .158-.07.622-.329.392-.559l-.906-.906.955-1.911c.052-.1-.07-.209-.144-.245a.9.9 0 0 0 -.475-.043 1.05 1.05 0 0 0 -.827.48q-.5 1-1 2a.181.181 0 0 0 .049.183z"/><path d="m27.7 5.522h1.239c.31 0 .763-.239.8-.579.041-.378-.387-.465-.667-.465h-10c-.31 0-.763.239-.8.579-.041.378.387.465.667.465z"/><path d="m15.558 4.579-.141-.071a.885.885 0 0 0 -.354-.043h-1a.806.806 0 0 0 -.291.069.749.749 0 0 0 -.254.131.611.611 0 0 0 -.252.389.4.4 0 0 0 .176.366l.141.072a.885.885 0 0 0 .354.043h1a.806.806 0 0 0 .291-.069.749.749 0 0 0 .254-.131.611.611 0 0 0 .252-.389.4.4 0 0 0 -.176-.367z"/><path d="m16.315 9.944c-.146.3.126.537.422.537h10a1.032 1.032 0 0 0 .948-.425c.146-.3-.126-.537-.422-.537h-10a1.032 1.032 0 0 0 -.948.425z"/><path d="m13.666 9.985c.053-.076.1-.177.011-.252a.593.593 0 0 0 -.381-.091h-1a1.6 1.6 0 0 0 -.567.119.906.906 0 0 0 -.231.12.558.558 0 0 0 -.164.134c-.053.076-.1.177-.011.252a.593.593 0 0 0 .381.091h1a1.6 1.6 0 0 0 .567-.119.906.906 0 0 0 .231-.12.558.558 0 0 0 .164-.134z"/><path d="m22.942 20.553h6a.813.813 0 0 0 .794-.6c.036-.383-.379-.5-.678-.5h-6a.813.813 0 0 0 -.794.6c-.036.379.379.5.678.5z"/><path d="m18.409 20.307h.124a1.983 1.983 0 0 0 .531-.067 1.591 1.591 0 0 0 .494-.207l.1-.079a.162.162 0 0 0 .066-.148c-.038-.092-.173-.113-.257-.113h-1a2.023 2.023 0 0 0 -.531.066 1.618 1.618 0 0 0 -.494.208l-.1.079a.162.162 0 0 0 -.066.148c.038.092.173.113.257.113z"/><path d="m26.721 15.42a1.139 1.139 0 0 0 .955-.4c.163-.288-.139-.44-.4-.44h-8a1.139 1.139 0 0 0 -.955.4c-.163.288.139.44.4.44z"/><path d="m13.728 15.449h1a1.378 1.378 0 0 0 .57-.109.746.746 0 0 0 .226-.138.534.534 0 0 0 .157-.164.279.279 0 0 0 -.011-.333.566.566 0 0 0 -.4-.154h-1a1.394 1.394 0 0 0 -.57.108.788.788 0 0 0 -.227.139.543.543 0 0 0 -.156.164.279.279 0 0 0 .011.333.566.566 0 0 0 .4.154z"/></g></svg>